<svg id="Layer_1" data-name="Layer 1" xmlns="http://www.w3.org/2000/svg" width="382" height="382" viewBox="0 0 382 382"><path d="M75.2373,214.4221V18.6646a18.2328,18.2328,0,1,0-36.4656,0V214.4788A56.1762,56.1762,0,0,0,2.56,282.7764a56.515,56.515,0,0,0,36.2113,38.1609v42.5681a18.2328,18.2328,0,0,0,36.4656,0V320.8806a56.16,56.16,0,0,0,36.2019-68.2976A56.5024,56.5024,0,0,0,75.2373,214.4221Zm1.8553,53.2859A20.1045,20.1045,0,0,1,57.0045,287.73H55.4882a20.0884,20.0884,0,1,1,21.6044-20.022Z"/><path d="M343.4836,214.4788V18.6646a18.2281,18.2281,0,1,0-36.4561,0V214.4788a56.1762,56.1762,0,0,0-36.2113,68.2976,56.515,56.515,0,0,0,36.2113,38.1609v42.5681a18.2281,18.2281,0,0,0,36.4561,0V320.8806a56.8815,56.8815,0,0,0,38.321-53.248v-.094A56.905,56.905,0,0,0,343.4836,214.4788Zm1.8648,53.1538a20.0928,20.0928,0,1,1-20.0975-20.0786A20.1224,20.1224,0,0,1,345.3484,267.6326Z"/><path d="M209.3746,61.12V18.6646a18.2281,18.2281,0,1,0-36.4562,0V61.12a56.15,56.15,0,0,0,0,106.4585v195.833a18.2281,18.2281,0,0,0,36.4562,0V167.5781a56.1762,56.1762,0,0,0,36.2113-68.2976A56.5154,56.5154,0,0,0,209.3746,61.12Zm1.8459,53.1729a20.0928,20.0928,0,1,1-20.0881-20.0977A20.1045,20.1045,0,0,1,211.2205,114.2925Z"/></svg>