<svg id="Layer_1" data-name="Layer 1" xmlns="http://www.w3.org/2000/svg" viewBox="0 0 510.24 510.24"><path d="M434.85,0A75.39,75.39,0,0,0,364.6,48H101.29A53.35,53.35,0,0,0,48,101.37V309.21h0a4.71,4.71,0,0,0,1.37,3.26,4.76,4.76,0,0,0,3.41,1.42H88.72a4.8,4.8,0,0,0,4.78-4.67h0V104.59a11.09,11.09,0,0,1,11.08-11.08H361.67A75.39,75.39,0,1,0,434.85,0Zm0,112.77a37.39,37.39,0,1,1,37.39-37.38A37.43,37.43,0,0,1,434.85,112.77Z"/><path d="M460.78,197.76a4.75,4.75,0,0,0-3.4-1.41H421.52a4.79,4.79,0,0,0-4.78,4.67h0V405.65a11.09,11.09,0,0,1-11.08,11.08H148.57a75.4,75.4,0,1,0-2.93,45.46h263.3a53.33,53.33,0,0,0,53.25-53.32V201h0A4.79,4.79,0,0,0,460.78,197.76ZM75.39,472.24a37.39,37.39,0,1,1,37.38-37.39A37.43,37.43,0,0,1,75.39,472.24Z"/><path d="M236,154h49.3a5.13,5.13,0,0,1,4.87,3.52l62,188a5.14,5.14,0,0,1-4.88,6.74H313.53a5.12,5.12,0,0,1-4.9-3.61L294.75,304h-69.9l-14.17,44.72a5.12,5.12,0,0,1-4.89,3.58H172.88A5.13,5.13,0,0,1,168,345.5l63.15-188A5.13,5.13,0,0,1,236,154Zm49.41,116.4-17.7-61.2-6.3-30.9h-1.8l-6.9,30.9-18.3,61.2Z"/></svg>