<svg id="Layer_1" data-name="Layer 1" xmlns="http://www.w3.org/2000/svg" viewBox="0 0 1081.16 510.24"><path d="M259.68,207.42a61.75,61.75,0,0,0-20.86-17.64q-13-7-30.38-7a67.87,67.87,0,0,0-36,9.8q-16.1,9.81-25.48,28T137.6,262.3q0,23.81,9.38,42.14t25.48,28.42a65.91,65.91,0,0,0,35.7,10.08q17.35,0,30.66-7.14a58.28,58.28,0,0,0,20.86-18.06v22.68h39.48V185.3H259.68Zm-5.6,79.94A39.4,39.4,0,0,1,239,303a40.42,40.42,0,0,1-20.44,5.46,38.35,38.35,0,0,1-20-5.6,41.35,41.35,0,0,1-15.12-16.1q-5.74-10.5-5.74-24.5t5.74-24.22A40.33,40.33,0,0,1,239,222.68a39.46,39.46,0,0,1,15.12,15.68q5.59,10.23,5.6,24.5T254.08,287.36Z"/><rect x="337.52" y="133.22" width="39.2" height="207.2"/><path d="M541.78,192.58a67.89,67.89,0,0,0-36-9.8q-17.08,0-30.38,7.14T454.56,207.7V185.3h-39.2v229h39.2v-96a64.38,64.38,0,0,0,21.14,17.64q13,7,30.1,7a66.44,66.44,0,0,0,36-10.08q16.1-10.08,25.48-28.42t9.38-42.14q0-23.79-9.38-41.86T541.78,192.58Zm-10.92,94.36a41.57,41.57,0,0,1-15.12,16,39.51,39.51,0,0,1-40.32.14,40.41,40.41,0,0,1-15.12-15.82q-5.74-10.35-5.74-24.36t5.74-24.36a40.48,40.48,0,0,1,15.12-15.82,39.13,39.13,0,0,1,20-5.46,40.55,40.55,0,0,1,20.3,5.32,39.83,39.83,0,0,1,15.12,15.54q5.73,10.23,5.74,24.22Q536.6,276.58,530.86,286.94Z"/><path d="M723.92,190.76q-13.73-7.69-31.36-7.7a66.85,66.85,0,0,0-28,5.74,51.13,51.13,0,0,0-20.16,15.82v-71.4H605.2v207.2h39.2V254.74q0-18.48,9.38-28.42t25.62-9.94q16,0,25.2,9.94t9.24,28.42v85.68H753v-91q0-21-7.7-36A53.21,53.21,0,0,0,723.92,190.76Z"/><path d="M902.28,207.42a61.75,61.75,0,0,0-20.86-17.64q-13-7-30.38-7a67.84,67.84,0,0,0-36,9.8q-16.11,9.81-25.48,28T780.2,262.3q0,23.81,9.38,42.14t25.48,28.42a65.91,65.91,0,0,0,35.7,10.08q17.36,0,30.66-7.14a58.36,58.36,0,0,0,20.86-18.06v22.68h39.48V185.3H902.28Zm-5.6,79.94A39.53,39.53,0,0,1,881.56,303a40.42,40.42,0,0,1-20.44,5.46,38.32,38.32,0,0,1-20-5.6A41.21,41.21,0,0,1,826,286.8q-5.75-10.5-5.74-24.5T826,238.08a40.33,40.33,0,0,1,55.58-15.4,39.59,39.59,0,0,1,15.12,15.68q5.6,10.23,5.6,24.5T896.68,287.36Z"/><path d="M980.11,1.09H101.05a100.15,100.15,0,0,0-100,100v308a100.14,100.14,0,0,0,100,100H980.11a100.14,100.14,0,0,0,100-100v-308A100.15,100.15,0,0,0,980.11,1.09Zm66,408a66.1,66.1,0,0,1-66,66H101.05a66.1,66.1,0,0,1-66-66v-308a66.1,66.1,0,0,1,66-66H980.11a66.1,66.1,0,0,1,66,66Z"/></svg>