<svg id="Layer_1" data-name="Layer 1" xmlns="http://www.w3.org/2000/svg" width="465" height="284" viewBox="0 0 465 284"><path d="M200.0186,284.42c-.06,0-.1182,0-.1778-.001a26.6132,26.6132,0,0,1-22.9638-13.53L103.2188,140.0254l-57.962,78.93A25,25,0,1,1,4.9561,189.3613l78.55-106.9668a27.5549,27.5549,0,0,1,46.2177,2.7842l70.5987,125.4268L314.8242,13.1309a26.9475,26.9475,0,0,1,45.544-1.7129l100.2607,146.46a25,25,0,1,1-41.2578,28.2442L339.7529,69.8174l-116.76,201.3672A26.6233,26.6233,0,0,1,200.0186,284.42Z"/></svg>