<svg id="Layer_1" data-name="Layer 1" xmlns="http://www.w3.org/2000/svg" viewBox="0 0 752 752"><g id="profile_picture_small_2" data-name="profile picture small 2"><path d="M376.1,751.49C168.84,751.49.22,582.87.22,375.61S168.84-.27,376.1-.27,752,168.36,752,375.61,583.35,751.49,376.1,751.49Zm0-693.93C200.73,57.56,58,200.24,58,375.61S200.73,693.67,376.1,693.67s318-142.69,318-318.06S551.47,57.56,376.1,57.56Z"/></g><path d="M306.7,554.7c-2.85-4.41-7-8.46-8.32-13.29-5.73-21.17,2.81-32.13,24.71-32.16q104.78-.17,209.55,0H549V481.39c0-35.57-.06-71.14,0-106.71,0-10.15-2.63-22.21,9.76-27,11.48-4.45,22.94-2.49,32.12,6.9V554.7Z"/><path d="M312.82,197.72c40.11,0,80.22-.06,120.33,0,26.87.06,45.89,17,46.31,44q1.25,78.32,0,156.68c-.41,26.82-19.32,43.88-46.36,44-61.29.17-122.58.31-183.87-.19-10.45-.09-17.68,3.07-24.5,10.64-15.06,16.73-31.07,32.59-46.14,49.31-7,7.8-15.86,11.21-23.76,5.8-5.43-3.73-10-12.9-10-19.68-.7-81-.52-162.09-.49-243.14,0-29.85,17.84-47.34,48.16-47.37Q252.65,197.69,312.82,197.72ZM187.43,243.09v184.3c5.54-6.4,9.17-9.84,11.88-13.88,8.71-13,20.62-15.76,35.87-15.55,62.24.87,124.5.36,186.75.36h14.58V243.09Z"/></svg>