<svg id="Layer_1" data-name="Layer 1" xmlns="http://www.w3.org/2000/svg" viewBox="0 0 510.24 510.24"><path d="M481.32,45.66l-285.21-1a44.38,44.38,0,0,0-31.69,13.17L13,223.12a44.84,44.84,0,0,0,0,63.05l152.41,166.2a44.34,44.34,0,0,0,31.54,13.17H481.22a29,29,0,0,0,29-29V74.67A29,29,0,0,0,481.32,45.66Zm-17,374H197.54l-151.25-165L196.6,90.57l267.76.91Z"/><path d="M215.24,331.24l16.94,16.94a9.52,9.52,0,0,0,13.47,0l62.65-62.66L371,348.18a9.52,9.52,0,0,0,13.47,0l16.93-16.94a9.52,9.52,0,0,0,0-13.47L338.7,255.12l62.65-62.65a9.52,9.52,0,0,0,0-13.47l-16.93-16.94a9.52,9.52,0,0,0-13.47,0L308.3,224.71l-62.65-62.65a9.52,9.52,0,0,0-13.47,0L215.24,179a9.52,9.52,0,0,0,0,13.47l62.65,62.65-62.65,62.65A9.52,9.52,0,0,0,215.24,331.24Z"/></svg>