<svg id="Layer_1" data-name="Layer 1" xmlns="http://www.w3.org/2000/svg" viewBox="0 0 1081.16 510.24"><path d="M946.24,0H134.92A134.93,134.93,0,0,0,0,134.92V375.31A134.93,134.93,0,0,0,134.92,510.24H946.24a134.93,134.93,0,0,0,134.92-134.93V134.92A134.93,134.93,0,0,0,946.24,0Zm110.92,375.31A110.93,110.93,0,0,1,946.24,486.24H134.92A110.93,110.93,0,0,1,24,375.31V134.92A110.93,110.93,0,0,1,134.92,24H946.24a110.93,110.93,0,0,1,110.92,110.92Z"/><path d="M325,198.8c-21.53,0-39.54,9.18-50.84,24.37V131H231.05V369h42.72V347.45c11.65,15.89,29.66,25.07,50.84,25.07,42.37,0,74.15-33.9,74.15-87.92v-.35C398.76,230.93,366.63,198.8,325,198.8ZM353.21,286c0,32.84-16.95,50.85-40.6,50.85-25.78,0-40.61-19.07-40.61-49.08V285c0-30,15.54-50.49,40.61-50.49,24.36,0,40.6,16.25,40.6,49.08Z"/><path d="M498.68,199.16c-48.73,0-83.33,36-83.33,87.56,0,51.9,32.49,85.09,84.39,85.09,43.43,0,67.79-19.77,79.44-46.61l-38.13-13.41c-5.3,14.12-15.89,25.77-40.61,25.77-23.65,0-39.19-13.42-42-37.42H579.18V285.31C579.18,232.7,549.17,199.16,498.68,199.16Zm-41,70.61c3.18-23.3,18.71-36.72,39.9-36.72,22.6,0,35.66,12.36,37.42,36.72Z"/><path d="M655.09,146.9l-42.72,24v31.42H588.71v35.31h23.66v87.21c.71,27.54,7.77,42.37,39.9,44.14h33.89V332.62H666.74c-8.12-.35-12-3.88-12-12v-83h33.19V202.33H655.09Z"/><path d="M785.38,199.16c-47,0-76.62,25.07-78,62.84h43.43v-2.47c1.06-14.83,11.65-26.12,34.24-26.12s31.43,9.18,31.43,19.06v1.77c-1.06,9.18-16.6,10.59-47.31,16.59-37.43,8.12-65.32,16.6-65.32,54,0,28.95,22.24,48.37,57.9,48.37,24.72,0,43.78-9.53,54.38-26.83V369h42V264.12C858.11,218.93,830.57,199.16,785.38,199.16Zm31.07,101c-1.06,31.07-23.66,41.66-44.49,41.66-15.18,0-24-7.77-24-19.07,0-14.83,12.71-20.48,29.66-24.71,13.77-3.53,29.31-6.36,38.84-12Z"/></svg>