<svg id="Layer_1" data-name="Layer 1" xmlns="http://www.w3.org/2000/svg" viewBox="0 0 912.79 510.24"><path d="M811.78,1.09H101.05a100.15,100.15,0,0,0-100,100v308a100.14,100.14,0,0,0,100,100H811.78a100.14,100.14,0,0,0,100-100v-308A100.15,100.15,0,0,0,811.78,1.09Zm66,408a66.1,66.1,0,0,1-66,66H101.05a66.1,66.1,0,0,1-66-66v-308a66.1,66.1,0,0,1,66-66H811.78a66.1,66.1,0,0,1,66,66Z"/><path d="M272.75,201.58a67.89,67.89,0,0,0-36-9.8q-17.09,0-30.38,7A56.11,56.11,0,0,0,185.53,217V142.22h-39.2v207.2h39.2V327.3a58.92,58.92,0,0,0,20.86,17.78q13,6.85,30.38,6.86a66.44,66.44,0,0,0,36-10.08q16.1-10.08,25.48-28.42t9.38-42.14q0-23.79-9.38-41.86T272.75,201.58Zm-10.92,94.36a41.57,41.57,0,0,1-15.12,16,39.51,39.51,0,0,1-40.32.14,40.41,40.41,0,0,1-15.12-15.82q-5.75-10.35-5.74-24.36t5.74-24.36a40.48,40.48,0,0,1,15.12-15.82,39.15,39.15,0,0,1,20-5.46,40.52,40.52,0,0,1,20.3,5.32,39.83,39.83,0,0,1,15.12,15.54q5.73,10.23,5.74,24.22Q267.57,285.58,261.83,295.94Z"/><path d="M443.55,201.3q-17.51-9.51-39.62-9.52-23,0-40.6,9.8a68.42,68.42,0,0,0-27.44,28q-9.81,18.21-9.8,42.28,0,23.81,9.94,42A69.8,69.8,0,0,0,363.75,342q17.78,9.94,40.18,9.94,27.72,0,46.76-14.42a70.64,70.64,0,0,0,25.76-36.82H434.17q-9.24,18.76-31.08,18.76-15.12,0-25.48-9.52t-11.76-26.32h113.4a93.26,93.26,0,0,0,1.12-15.12q0-22.68-9.66-40.18A67.1,67.1,0,0,0,443.55,201.3Zm-77.42,56q2.24-15.68,12.18-24.5t24.5-8.82q15.39,0,26,9.1t10.92,24.22Z"/><path d="M554.57,155.94H515.09V194.3H496.61v32.2h18.48v74.76q0,48.17,49.56,48.16h24.64v-33h-18.2q-9,0-12.74-3.5t-3.78-11.34v-75h34.72V194.3H554.57Z"/><path d="M729.56,216.42a61.75,61.75,0,0,0-20.86-17.64q-13-7-30.38-7a67.87,67.87,0,0,0-36,9.8q-16.1,9.81-25.48,28t-9.38,41.72q0,23.81,9.38,42.14t25.48,28.42A65.91,65.91,0,0,0,678,351.94q17.36,0,30.66-7.14a58.28,58.28,0,0,0,20.86-18.06v22.68H769V194.3H729.56ZM724,296.36A39.4,39.4,0,0,1,708.84,312a40.42,40.42,0,0,1-20.44,5.46,38.35,38.35,0,0,1-20-5.6,41.35,41.35,0,0,1-15.12-16.1q-5.75-10.5-5.74-24.5t5.74-24.22a40.33,40.33,0,0,1,55.58-15.4A39.46,39.46,0,0,1,724,247.36q5.6,10.23,5.6,24.5T724,296.36Z"/></svg>