<?xml version="1.0" encoding="UTF-8"?><svg id="a" xmlns="http://www.w3.org/2000/svg" viewBox="0 0 510.24 510.24"><path d="M509.8,75.39C509.8,33.75,476.05,0,434.42,0s-75.39,33.75-75.39,75.39c0,38.16,28.37,69.69,65.16,74.68,2.6,23.61,6.84,69.46,7.18,119.28,.62,89.79-11.79,154.08-34.95,181.03-7.95,9.25-16.73,13.63-27.66,13.79-16.74,.26-29.59-4.2-40.43-13.99-10.62-9.58-19.26-24.22-26.43-44.74-7.98-22.82-13.21-50.86-17.16-80.98,26.9-11.51,45.76-38.22,45.76-69.33,0-36.44-25.86-66.85-60.23-73.86-4.31-33.22-10.16-64.68-19.47-91.3C229.93,30.22,192.92,.34,140.8,1.09c-23.73,.35-44.87,10.54-61.13,29.47-31.16,36.27-46.58,107.31-45.81,211.15,.4,53.77,5.01,102.01,7.7,125.78C16.92,379.88,0,405.38,0,434.85,0,476.48,33.75,510.24,75.39,510.24s75.39-33.75,75.39-75.39c0-38.01-28.14-69.44-64.73-74.62-2.6-23.6-6.85-69.48-7.19-119.33-.62-89.79,11.79-154.08,34.95-181.03,7.95-9.25,16.73-13.63,27.66-13.79,16.74-.26,29.59,4.2,40.43,13.99,10.62,9.58,19.26,24.22,26.43,44.74,7.98,22.82,13.21,50.86,17.16,80.98-26.9,11.51-45.75,38.22-45.75,69.33,0,36.44,25.86,66.84,60.23,73.86,4.31,33.22,10.17,64.68,19.47,91.3,20.88,59.74,57.89,89.62,110.01,88.87,23.73-.35,44.87-10.54,61.13-29.47,31.16-36.27,46.58-107.31,45.81-211.15-.4-53.93-5.04-102.3-7.72-125.99,24.42-12.47,41.15-37.85,41.15-67.16ZM112.77,434.85c0,20.61-16.77,37.39-37.39,37.39s-37.39-16.77-37.39-37.39,16.77-37.39,37.39-37.39,37.39,16.77,37.39,37.39Zm104.96-179.73c0-20.61,16.77-37.39,37.39-37.39s37.39,16.77,37.39,37.39-16.77,37.39-37.39,37.39-37.39-16.77-37.39-37.39ZM434.42,112.77c-20.61,0-37.39-16.77-37.39-37.39s16.77-37.39,37.39-37.39,37.39,16.77,37.39,37.39-16.77,37.39-37.39,37.39Z"/></svg>