<svg id="Layer_1" data-name="Layer 1" xmlns="http://www.w3.org/2000/svg" viewBox="0 0 510.24 510.24"><defs><style>.cls-1{fill:#1d1d1b;}</style></defs><path class="cls-1" d="M391.11,257.49v-.11c.07-.76.1-1.53.1-2.29-.11-28.06-8.7-55.53-24.18-77.34a157.93,157.93,0,0,0-14.2-17.39l-.14-.14A153.1,153.1,0,0,0,336,145.79a135.38,135.38,0,0,0-80.72-26.73,137.08,137.08,0,0,0-37.12,5.06c-26.41,7.48-50.18,22.81-66.92,43.17a152.14,152.14,0,0,0-13,18l-.08.15a147.17,147.17,0,0,0-9.75,20.14,136.81,136.81,0,0,0,10,119.57c14.16,23.43,35.06,42.29,58.84,53.09a128,128,0,0,0,44,12.19,137.53,137.53,0,0,0,14.32.76,135.57,135.57,0,0,0,97.63-41.72c19.22-20.12,32-45.43,35.93-71.26A158.29,158.29,0,0,0,391.11,257.49Zm-50.81,9.05v.11a108,108,0,0,1-5.83,21.55l0,.05,0,.05a106.07,106.07,0,0,1-11.36,19.46l0,.05,0,0a110,110,0,0,1-15.07,15.06l0,0-.05,0a107.12,107.12,0,0,1-19.59,11.43l-.05,0-.05,0a106.88,106.88,0,0,1-21.6,5.81h-.11a107.36,107.36,0,0,1-22.48,0h-.11a108.66,108.66,0,0,1-21.71-5.85l-.06,0-.05,0A107,107,0,0,1,202.52,323l0,0,0,0a108.45,108.45,0,0,1-15-15l0,0,0,0a107.8,107.8,0,0,1-11.43-19.59l0,0,0-.05a106.88,106.88,0,0,1-5.81-21.6v-.1a107.87,107.87,0,0,1,0-22.51v-.11a108.75,108.75,0,0,1,5.85-21.7l0-.05,0,0a106.4,106.4,0,0,1,11.36-19.46l0-.05,0,0a108.92,108.92,0,0,1,15-15l0,0,0,0a108,108,0,0,1,19.64-11.46l0,0,.05,0A107.45,107.45,0,0,1,243.83,170h.1a105.75,105.75,0,0,1,11.26-.59,107.82,107.82,0,0,1,11.22.58h.11a107.43,107.43,0,0,1,21.72,5.85l.05,0,0,0a106.17,106.17,0,0,1,19.39,11.31l0,0,0,0A109.19,109.19,0,0,1,323,202.39l0,0,0,0a108.05,108.05,0,0,1,11.43,19.58l0,0,0,.06a107,107,0,0,1,5.8,21.47v.11a111.36,111.36,0,0,1,.6,11.41v.19A109.81,109.81,0,0,1,340.3,266.54Z"/><path class="cls-1" d="M254.35,86.2c.34,0,.68,0,1,0,14-.64,24.9-11.69,24.9-25.15V26.33a25.66,25.66,0,0,0-8.1-18.39,23.62,23.62,0,0,0-16.29-6.79l-1,0C240.9,1.82,230,12.87,230,26.33V61a25.68,25.68,0,0,0,8.1,18.39A23.66,23.66,0,0,0,254.35,86.2Z"/><path class="cls-1" d="M255.86,424l-1,0c-13.95.65-24.89,11.69-24.89,25.15v34.7a25.65,25.65,0,0,0,8.11,18.39,23.61,23.61,0,0,0,16.27,6.78l1,0c14-.64,24.9-11.69,24.9-25.15v-34.7a25.68,25.68,0,0,0-8.1-18.39A23.69,23.69,0,0,0,255.86,424Z"/><path class="cls-1" d="M86.18,254.86C85.53,240.9,74.49,230,61,230H26.33a25.71,25.71,0,0,0-18.4,8.11,23.44,23.44,0,0,0-6.75,17.3c.64,14,11.69,24.9,25.15,24.9H61a25.66,25.66,0,0,0,18.39-8.1A23.44,23.44,0,0,0,86.18,254.86Z"/><path class="cls-1" d="M509.06,254.86c-.65-14-11.69-24.9-25.15-24.9h-34.7a25.69,25.69,0,0,0-18.39,8.11,23.41,23.41,0,0,0-6.76,17.3c.65,14,11.69,24.9,25.15,24.9h34.7a25.66,25.66,0,0,0,18.39-8.1A23.44,23.44,0,0,0,509.06,254.86Z"/><path class="cls-1" d="M124.59,385.31a26.38,26.38,0,0,0-17.87-7.06,24.63,24.63,0,0,0-17.54,7.22L70.36,404.29A25.59,25.59,0,0,0,63.1,423,23.54,23.54,0,0,0,70.53,440a26.39,26.39,0,0,0,17.87,7A24.63,24.63,0,0,0,106,439.87l18.82-18.81A25.69,25.69,0,0,0,132,402.39,23.57,23.57,0,0,0,124.59,385.31Z"/><path class="cls-1" d="M385.64,124.93a26.44,26.44,0,0,0,17.87,7,24.61,24.61,0,0,0,17.55-7.22L439.88,106a25.7,25.7,0,0,0,7.26-18.67,23.56,23.56,0,0,0-7.45-17.1,26.49,26.49,0,0,0-17.87-7,24.59,24.59,0,0,0-17.53,7.2L385.47,89.17a25.67,25.67,0,0,0-7.26,18.68A23.54,23.54,0,0,0,385.64,124.93Z"/><path class="cls-1" d="M89.17,124.76a25.68,25.68,0,0,0,18.1,7.27h.57a23.57,23.57,0,0,0,17.08-7.44c9.47-10.3,9.4-25.86-.16-35.41L106,70.36a25.63,25.63,0,0,0-18-7.27h-.62a23.54,23.54,0,0,0-17.09,7.43c-9.46,10.3-9.39,25.86.17,35.42Z"/><path class="cls-1" d="M421.06,385.47a25.54,25.54,0,0,0-18-7.27h-.68a23.52,23.52,0,0,0-17.09,7.43c-9.47,10.3-9.4,25.86.16,35.42l18.82,18.82a25.66,25.66,0,0,0,18.09,7.27H423a23.59,23.59,0,0,0,17.1-7.45c9.42-10.32,9.34-25.88-.18-35.4Z"/></svg>