<svg id="Layer_1" data-name="Layer 1" xmlns="http://www.w3.org/2000/svg" viewBox="0 0 510.24 510.24"><defs><style>.cls-1{fill:#1d1d1b;}</style></defs><path class="cls-1" d="M494.32,38.15,472.19,16a54.86,54.86,0,0,0-77.49,0L161.22,249.51a2,2,0,0,0-.78.1c-.12.12-.23,0-.34.1s-.23,0-.33.11a187.73,187.73,0,0,0-97,54C8.11,358.53.8,480.1.58,485.17a23.27,23.27,0,0,0,6.88,17.94A23.47,23.47,0,0,0,25.39,510c5.2-.32,126.64-7.53,181.33-62.22a186.9,186.9,0,0,0,54-97,.44.44,0,0,1,.11-.33c.11-.12,0-.24.1-.34a1.55,1.55,0,0,0,.1-.78L494.54,115.86A55.33,55.33,0,0,0,494.32,38.15Zm-321,376.43c-27,27-84.6,40.27-123.14,45.58,5.43-38.62,18.71-96.19,45.62-123.1a148.66,148.66,0,0,1,61.52-38.12l54.11,54.12A150.64,150.64,0,0,1,173.3,414.58ZM461.19,82.34l-.09.08-226.95,227L201,276.17l227-226.95a7.77,7.77,0,0,1,11-.09l.09.09L461.1,71.37A7.75,7.75,0,0,1,461.19,82.34Z"/></svg>