<?xml version="1.0" encoding="UTF-8"?><svg id="Layer_1" xmlns="http://www.w3.org/2000/svg" viewBox="0 0 510.24 510.24"><path d="M500.88,91.4c-1.12-2.88-2.78-5.44-4.92-7.57-4.15-4.17-9.68-6.48-15.56-6.48h-.02c-5.86,0-11.37,2.27-15.56,6.43l-50.86,50.86-29.28-9.09-9.09-29.28,50.86-50.86c2.17-2.17,3.82-4.73,4.98-7.67,2.1-5.47,1.94-11.44-.43-16.8-2.39-5.38-6.74-9.51-12.25-11.62-31.13-11.89-65.6-12.44-97.12-1.48-70.59,24.53-109.56,99.57-90.48,170.66L20.81,388.77c-27.74,27.74-27.74,72.88-.01,100.61,13.44,13.45,31.3,20.85,50.3,20.85h.01c19,0,36.86-7.4,50.31-20.83l210.32-210.33c28.71,7.67,59.28,6.13,87.14-4.49,73.1-27.86,109.91-109.99,82.01-183.19ZM51.69,458.07l-.34-.32c-10.01-10.64-9.83-27.46,.54-37.85l219.75-219.76c6.11-6.07,8.12-15.22,5.05-23.42-7.59-19.86-8.47-42.05-2.49-62.47,12.25-41.83,50.15-69.32,91.56-70.35l-30.68,30.7c-5.77,5.78-7.86,14.19-5.46,22.04l16.4,53.01c2.12,7.06,7.6,12.55,14.53,14.62l53.09,16.47c7.78,2.4,16.23,.29,21.98-5.48l30.61-30.59c-.29,11-2.43,21.95-6.36,32.28-9.33,24.43-27.61,43.76-51.47,54.45-23.87,10.67-50.48,11.43-75,2.06-8.06-3.05-17.19-1.03-23.27,5.05L90.6,458.07c-10.88,10.42-27.99,10.45-38.91,0Z"/></svg>