<?xml version="1.0" encoding="UTF-8"?><svg id="Layer_1" xmlns="http://www.w3.org/2000/svg" viewBox="0 0 510.24 510.24"><path id="date_icon" d="M76.57,510.24c-20.3,0-39.75-8.04-54.12-22.37C8.1,473.48,.04,454,.04,433.71V127.57C.04,107.27,8.1,87.8,22.45,73.44c14.36-14.33,33.82-22.42,54.12-22.42h51.02V25.52c-.01-9.11,4.84-17.53,12.73-22.09,7.88-4.58,17.62-4.58,25.51,0,7.9,4.56,12.76,12.98,12.76,22.09v25.49h153.06V25.52c-.01-9.11,4.84-17.53,12.73-22.09,7.9-4.58,17.63-4.58,25.53,0,7.9,4.56,12.76,12.98,12.76,22.09v25.49h51c20.3,0,39.76,8.06,54.12,22.42,14.35,14.36,22.41,33.84,22.41,54.13V433.71c0,20.3-8.05,39.8-22.41,54.16-14.36,14.33-33.82,22.37-54.12,22.37H76.57Zm-25.53-76.53c0,6.78,2.69,13.28,7.47,18.07,4.79,4.76,11.27,7.45,18.03,7.45H433.67c6.76,0,13.25-2.69,18.03-7.45,4.79-4.79,7.47-11.29,7.47-18.07V236.99H50.99l.05,196.72ZM459.22,186.51v-58.94c0-6.76-2.69-13.26-7.47-18.04s-11.26-7.47-18.03-7.47h-51.05v25.52c0,9.11-4.86,17.53-12.76,22.09-7.9,4.56-17.63,4.56-25.53,0-7.88-4.56-12.73-12.98-12.73-22.09v-25.52H178.59v25.52c0,9.11-4.86,17.53-12.76,22.09-7.9,4.56-17.61,4.56-25.51,0-7.88-4.56-12.73-12.98-12.73-22.09v-25.52h-51.02c-6.77,0-13.25,2.69-18.03,7.47-4.79,4.79-7.47,11.29-7.47,18.04v58.94H459.22Z"/></svg>