<svg id="Layer_1" data-name="Layer 1" xmlns="http://www.w3.org/2000/svg" viewBox="0 0 384.14 382.5"><path d="M383.34,51c0-.52,0-1,0-1.55,0-.21,0-.42-.05-.62,0-.69-.09-1.37-.16-2,0,0,0-.08,0-.12A52.32,52.32,0,0,0,333.83.07c-.89,0-1.78-.07-2.68-.07H52.89A52.24,52.24,0,0,0,.77,52.22V330.5c0,.74,0,1.47.06,2.2,0,.13,0,.27,0,.41a51.67,51.67,0,0,0,3,14.87,3.59,3.59,0,0,0,.12.35c.16.45.35.89.52,1.33s.28.71.42,1c.07.17.16.34.23.51A52.2,52.2,0,0,0,52.89,382.5H331.58a52.22,52.22,0,0,0,51.79-52.11V52.15C383.37,51.78,383.35,51.41,383.34,51Zm-75,66-133,176.67a24.77,24.77,0,0,1-17.26,9.71l-.53.05-1.92-.1A24.11,24.11,0,0,1,139,296.49L78.3,234.75a23.9,23.9,0,0,1,34.34-33.24l40.58,41.86L269.39,88.81A24,24,0,0,1,285,79.24a24.65,24.65,0,0,1,18,4.25,24.06,24.06,0,0,1,5.46,33.58Z"/></svg>