<svg id="Layer_1" data-name="Layer 1" xmlns="http://www.w3.org/2000/svg" viewBox="0 0 384.14 382.5"><path fill="#74f9b2" d="M334.83,0H49.27A48.5,48.5,0,0,0,.82,48.56V334c0,.42,0,.84,0,1.25s0,.81,0,1.21.07.84.1,1.25.05.82.09,1.22.1.81.16,1.21.09.82.15,1.22.14.79.21,1.18.14.81.22,1.21.18.78.27,1.16.17.8.27,1.19.22.77.33,1.15.21.77.33,1.15.26.76.39,1.14.24.75.37,1.11.3.75.44,1.12.28.73.43,1.09.33.72.5,1.09.31.71.48,1.06.36.71.55,1.07.34.68.52,1,.41.72.62,1.08.36.64.55.95.44.69.66,1l.6.93.7,1c.22.31.43.62.66.92s.49.63.74.95.46.6.7.89.53.61.79.91.48.57.73.85.57.59.85.88.5.54.76.8.57.54.85.81.55.54.84.8.56.48.83.72l.93.8c.29.24.59.47.89.7s.62.5.95.74.62.45.93.67.64.47,1,.69l.89.57c.36.23.71.47,1.08.69s.56.32.83.48.8.47,1.2.69.59.3.89.45.8.42,1.21.62.57.26.86.39.85.4,1.29.58c.27.12.55.22.83.33.46.18.91.37,1.37.54l.92.31c.44.15.89.31,1.34.45.3.1.62.18.93.27s.91.27,1.37.39l1,.22,1.37.32,1.07.19c.44.08.88.17,1.32.23s.75.1,1.13.15.86.12,1.3.16,1,.08,1.53.12l.93.07c.83,0,1.66.06,2.5.06H334.86a48.51,48.51,0,0,0,48.46-48.56V48.47h0v0A48.49,48.49,0,0,0,334.83,0Z"/><path fill="#fff" d="M167.68,283.67a18.34,18.34,0,0,0,2.18-2l138.05-153a6.62,6.62,0,0,0-.6-9.24l-1.16-1v-.1L282.07,96.8a6.61,6.61,0,0,0-9.29.51L158.53,224.14,113,165.9a6.63,6.63,0,0,0-9.24-1.13L77.11,185.48A6.62,6.62,0,0,0,76,194.65l67.3,86.08A17.41,17.41,0,0,0,167.68,283.67Z"/></svg>