<svg id="Layer_1" data-name="Layer 1" xmlns="http://www.w3.org/2000/svg" viewBox="0 0 510.24 510.24"><defs><style>.cls-1{fill:#1d1d1b;}</style></defs><path class="cls-1" d="M426.22,192.75a172.7,172.7,0,0,0,1.45-22.3C427.67,76.31,351.52,0,257.59,0S87.51,76.31,87.51,170.45a172.42,172.42,0,0,0,1.14,19.66A170.48,170.48,0,0,0,0,339.79c0,94.13,76.15,170.45,170.08,170.45a169.06,169.06,0,0,0,85-22.81,169,169,0,0,0,85,22.81c93.93,0,170.08-76.32,170.08-170.45A170.44,170.44,0,0,0,426.22,192.75Zm-292.94-22.3a124.31,124.31,0,1,1,248.62,0c0,1.35,0,2.7-.07,4.05a170.21,170.21,0,0,0-126.71,17.65,170.21,170.21,0,0,0-121.8-18.81C133.3,172.38,133.28,171.42,133.28,170.45ZM294.39,339.79A123.91,123.91,0,0,1,258,427.88c-.94.94-1.9,1.86-2.86,2.76-1-.9-1.92-1.82-2.86-2.76a123.91,123.91,0,0,1-36.41-88.09c0-1.36,0-2.71.07-4.05a170.68,170.68,0,0,0,78.43,1.15C294.37,337.86,294.39,338.82,294.39,339.79ZM257.59,295a125.06,125.06,0,0,1-31.84-4.11,124.45,124.45,0,0,1,26.51-39.22c.94-.94,1.89-1.86,2.86-2.77,1,.91,1.92,1.83,2.86,2.77A124.35,124.35,0,0,1,285,292,125.11,125.11,0,0,1,257.59,295Zm-73.16-23.84a127.47,127.47,0,0,1-14.74-12.65,124.56,124.56,0,0,1-27-40.32,125.32,125.32,0,0,1,72.85,5.56A170.79,170.79,0,0,0,184.43,271.19Zm110.24-47.41A125.17,125.17,0,0,1,372,219.32a125.55,125.55,0,0,1-45,54.54A170.67,170.67,0,0,0,294.67,223.78ZM82.18,427.88a124.77,124.77,0,0,1,0-176.18,125.71,125.71,0,0,1,18.53-15.33,170.93,170.93,0,0,0,70.82,81.11,172.85,172.85,0,0,0-1.45,22.31,170,170,0,0,0,45.48,116A124.34,124.34,0,0,1,82.18,427.88Zm345.88,0a124.35,124.35,0,0,1-133.39,27.91,170,170,0,0,0,45.49-116A172.6,172.6,0,0,0,339,320.12a171,171,0,0,0,74.3-81.07,125.54,125.54,0,0,1,14.74,12.65,124.79,124.79,0,0,1,0,176.18Z"/></svg>