<svg id="Layer_1" data-name="Layer 1" xmlns="http://www.w3.org/2000/svg" viewBox="0 0 510.24 510.24"><path d="M509.91,148.7a12.11,12.11,0,0,0-8.73-7.69L149.41,61.13a75.35,75.35,0,1,0-6,46.83L438.1,174.88,293.86,365.26a75.33,75.33,0,1,0,34.68,32.05l179.64-237.1A12.13,12.13,0,0,0,509.91,148.7ZM75.39,112.77a37.39,37.39,0,1,1,37.38-37.38A37.43,37.43,0,0,1,75.39,112.77Zm187.2,358.47A37.39,37.39,0,1,1,300,433.85,37.43,37.43,0,0,1,262.59,471.24Z"/><rect x="116.25" y="161.56" width="43" height="75.02" transform="translate(-76.33 86.04) rotate(-27.49)"/><rect x="173.5" y="269.66" width="43" height="75.02" transform="translate(-119.76 124.67) rotate(-27.49)"/></svg>