<svg id="Layer_1" data-name="Layer 1" xmlns="http://www.w3.org/2000/svg" viewBox="0 0 510.24 510.24"><path d="M254.74,144.8a110.31,110.31,0,1,0,78,32.31A109.61,109.61,0,0,0,254.74,144.8Zm0,172.7a62.36,62.36,0,1,1,62.36-62.36A62.43,62.43,0,0,1,254.74,317.5Z"/><path d="M484.09,296.22l-24.77-22.66a216.49,216.49,0,0,0,0-37.42L484,213.37h0l0,0,0,0,0,0A46.15,46.15,0,0,0,492.57,157h0l0,0h0l0,0L458.8,98.66a46,46,0,0,0-52.91-20.92l-.07,0,0,0h0l-.05,0L373.85,87.92a197.11,197.11,0,0,0-33.3-18.83l-7.33-32.65A45.82,45.82,0,0,0,288.73.69H220.8a45.7,45.7,0,0,0-43.71,36l-7.41,32.59a197.43,197.43,0,0,0-33.33,18.84L104.33,78h-.09a45.45,45.45,0,0,0-13.43-2A46,46,0,0,0,51.27,98.59L17.39,157.37v0l0,.06h0l0,.05A46.14,46.14,0,0,0,26,213.73l.05,0,.07.07,24.68,22.58a216.26,216.26,0,0,0,0,37.4L26.11,296.63h0l0,0h0l-.05.05A46.13,46.13,0,0,0,17.55,353l33.33,58.52a45.83,45.83,0,0,0,53,21h0l.06,0,32-10.14a197.64,197.64,0,0,0,33.31,18.84l7.32,32.65a45.84,45.84,0,0,0,44.49,35.75h67.38A45.83,45.83,0,0,0,333,473.31l7.35-32.6a197.25,197.25,0,0,0,33.31-18.84l32,10.15,0,0h.05a45.78,45.78,0,0,0,53-20.64l34-58.76v0l0,0v0A45.88,45.88,0,0,0,484.09,296.22Zm-68.21,84.95-40.12-12.5a25.36,25.36,0,0,0-7.72-1.19,25.72,25.72,0,0,0-16.56,6,145.55,145.55,0,0,1-42.14,24.37,25.83,25.83,0,0,0-16.24,18.63l-9.29,41.22h-57.9l-9.3-41.24a25.75,25.75,0,0,0-16.22-18.63,145.19,145.19,0,0,1-42.2-24.47,26,26,0,0,0-16.49-5.92h-.81l-.3,0-.36.05a25.62,25.62,0,0,0-5.85,1.48L94.56,381.47,65.31,330.88l30.35-28.6a25.89,25.89,0,0,0,7.87-22.8,165.51,165.51,0,0,1,0-50,25.88,25.88,0,0,0-7.9-22.79l0,0,0,0,0,0-.05,0L64.72,178.85l28.91-50,40.31,12.77h0l.07,0a25.87,25.87,0,0,0,24.16-4.86,145.54,145.54,0,0,1,42.19-24.41,25.81,25.81,0,0,0,16.24-18.68l9.51-41.47h57.58L293,93.47a25.79,25.79,0,0,0,16.22,18.61,145.48,145.48,0,0,1,42.21,24.43,26,26,0,0,0,16.54,6,25.6,25.6,0,0,0,7.62-1.15l40.16-12.51,28.43,51-30.33,28a26,26,0,0,0-8,22.84,165.77,165.77,0,0,1,0,50,25.88,25.88,0,0,0,7.9,22.79l.06.06.07.07.08.07.08.06,31,27.07Z"/></svg>