<?xml version="1.0" encoding="UTF-8"?><svg id="Layer_1" xmlns="http://www.w3.org/2000/svg" viewBox="0 0 510.24 510.24"><path d="M434.1,76.14C386.29,28.33,322.73,2,255.12,2h0c-67.61,0-131.17,26.33-178.98,74.14C28.33,123.95,2,187.51,2,255.12s26.33,131.17,74.14,178.98c47.81,47.81,111.37,74.14,178.98,74.14s131.17-26.33,178.98-74.14c47.81-47.81,74.14-111.37,74.14-178.98s-26.33-131.17-74.14-178.98ZM255.12,457.43c-111.55,0-202.31-90.75-202.31-202.31S143.57,52.81,255.12,52.81c54.04,0,104.84,21.04,143.05,59.25s59.25,89.01,59.25,143.05c0,111.55-90.75,202.31-202.31,202.31Z"/><path d="M357.29,164.41c-5.29-4.11-11.86-5.92-18.51-5.09s-12.58,4.2-16.69,9.49l-101.19,130.09-47.34-44.39h0c-10.12-9.48-26.05-8.99-35.51,1.1-9.46,10.09-8.95,26,1.14,35.46l67.47,63.25c4.66,4.36,10.83,6.78,17.17,6.78,.65,0,1.3-.03,1.96-.08,7.01-.55,13.51-4.05,17.83-9.61l118.08-151.81c4.11-5.29,5.92-11.87,5.09-18.51-.83-6.65-4.2-12.58-9.49-16.69Z"/></svg>