<svg id="Layer_1" data-name="Layer 1" xmlns="http://www.w3.org/2000/svg" viewBox="0 0 512 512"><path d="M377.35,166.74a23.06,23.06,0,0,0-22.79-19.43,26.21,26.21,0,0,0-3.75.3,22.91,22.91,0,0,0-15,9.2l-.27.43L221,307.52l-1.22,1.62L173.15,261a22.93,22.93,0,0,0-33.52,31.25l0,1.25h1.16L206.19,360a23.16,23.16,0,0,0,14.16,6.57v.05l1.27,0,.67,0,2.58,0H225a23.92,23.92,0,0,0,16.17-9.3L373.26,184l.41-.57v-.05a23,23,0,0,0,3.68-16.64Z"/><path d="M436.69,75.31A255.89,255.89,0,1,0,74.8,437.2,255.89,255.89,0,1,0,436.69,75.31ZM255.75,464.42C141,464.42,47.58,371,47.58,256.25S141,48.08,255.75,48.08s208.17,93.39,208.17,208.17S370.53,464.42,255.75,464.42Z"/></svg>