<svg id="Layer_1" data-name="Layer 1" xmlns="http://www.w3.org/2000/svg" viewBox="0 0 510.24 510.24"><defs><style>.cls-1{fill:#1d1d1b;}</style></defs><path class="cls-1" d="M500.09,358,385.55,243.54a5.89,5.89,0,0,0-4.13-1.69,5.76,5.76,0,0,0-4.1,1.73l-24.26,24.74a5.79,5.79,0,0,0,.05,8.16l75.26,74.77-204.4,0c-.23,0-.45,0-.67,0h-159a5.8,5.8,0,0,0-5.79,5.85l.33,34.49a5.81,5.81,0,0,0,5.79,5.73h208.9v0H428.37l-75.28,75.28a5.78,5.78,0,0,0-1.7,4.12,5.71,5.71,0,0,0,1.74,4.1l24.72,24.29a5.81,5.81,0,0,0,8.16,0L500.13,390.45h0A23.08,23.08,0,0,0,500.09,358Z"/><path class="cls-1" d="M128.11,267.88h0a5.73,5.73,0,0,0,4.1-1.74l24.27-24.73a5.82,5.82,0,0,0-.06-8.17L81.19,158.48l204.4,0c.23,0,.45,0,.67,0h159a5.8,5.8,0,0,0,5.79-5.85l-.33-34.49a5.81,5.81,0,0,0-5.79-5.73H236v0H81.2l75.27-75.28a5.79,5.79,0,0,0,0-8.23L131.71,4.64a5.8,5.8,0,0,0-8.16.05L9.43,119.28h0a23.08,23.08,0,0,0,0,32.42L124,266.18A5.71,5.71,0,0,0,128.11,267.88Z"/></svg>