<svg id="Layer_1" data-name="Layer 1" xmlns="http://www.w3.org/2000/svg" viewBox="0 0 510.24 510.24"><path d="M455.91,105.22H405V54.31h0v-.06A54.4,54.4,0,0,0,350.69,0H54.33A54.35,54.35,0,0,0,0,54.41V350.68c0,.34,0,.67,0,1l0,.39v.39l0,1c0,.34,0,.66.07,1l0,.38,0,.38c0,.34,0,.68.09,1s.07.63.11,1l0,.38,0,.37c0,.34.08.68.13,1s.11.62.17.94l.07.36.06.38.18,1,.21.92.09.36.08.37c.08.33.15.65.23,1s.17.6.25.89l.11.36.1.36c.09.33.18.65.28,1s.19.59.29.88l.12.34.12.35c.1.32.21.64.32,1s.23.58.35.87l.13.34.14.35c.12.31.23.61.36.9s.26.59.39.88l.15.33.15.34c.13.29.26.58.4.87s.28.55.42.83l.17.32.17.34.44.85.48.84.18.31.18.32.47.81.53.82.2.31.2.31c.16.26.32.51.49.76s.37.53.56.79l.21.3.21.3c.18.25.35.5.53.74s.41.52.61.78l.23.29.22.28c.18.24.37.47.56.71l.67.78.24.26.22.27c.19.22.38.44.58.65s.45.49.68.72l.25.27.25.26.62.64c.22.23.45.44.68.66l.27.25.27.26c.22.22.44.43.67.63l.7.62.28.24.28.24c.23.21.47.41.71.61l.7.56.29.22.28.23.78.6.72.52.3.21.29.2.83.59.74.48.31.2.32.2.83.53.75.44.31.17.3.18.92.52c.24.13.48.26.73.38l.31.16.33.16,1,.5.74.34.31.14.32.15,1,.46L34,401l.33.13.35.14,1.06.42.79.27.34.11.36.12,1,.35.82.24.35.09.35.11,1.06.29.83.2.35.08.35.08c.37.09.73.18,1.1.25s.65.12,1,.18l.39.07.38.07.93.16,1,.13.38.05.37.05.93.11c.44,0,.89.08,1.34.11l.35,0,.32,0,.75.05c.93.05,1.87.07,2.79.07h50.82v50.9q0,.49,0,1v.79c0,.33,0,.65,0,1s0,.65.07,1l0,.38,0,.39c0,.33,0,.67.08,1s.07.64.12.95l.05.38,0,.38c0,.33.08.67.14,1s.1.62.16.93l.07.37.06.38.18,1,.21.92.09.36.09.38c.07.32.14.65.22,1s.17.59.25.89l.11.36.1.36c.09.32.18.65.28,1s.19.58.29.88l.12.34.12.36c.11.32.21.64.33.95s.22.59.34.88l.14.34.13.34c.12.31.23.61.36.91s.26.57.39.86l.15.34.15.34c.13.29.26.58.4.87l.42.83.17.33.17.33.44.85.48.83.18.32.19.32c.15.27.3.54.46.81s.35.55.53.83l.2.3.2.31c.16.26.32.51.49.76s.37.53.56.8l.22.3.21.29c.17.25.34.5.52.74s.41.53.61.78l.23.29.23.29c.18.24.36.47.55.7s.44.52.67.77l.24.27.22.27.58.66.67.71.26.27.25.26c.2.22.41.44.62.65l.69.66.26.25.26.25c.23.21.45.43.68.63s.47.42.71.62l.28.24.27.24.71.61.7.55.29.23.29.23c.25.2.51.41.78.61l.72.52.29.2.29.21.83.58c.24.17.5.33.75.49l.31.19.31.2c.27.18.55.36.84.53l.74.44.31.17.32.19.9.51.72.37.32.16.33.18c.32.17.65.34,1,.49l.72.34.33.14.34.16,1,.45c.24.11.48.2.73.29l.33.13.35.15,1.06.41.8.27.33.11.35.12,1.05.35c.26.09.54.16.81.24l.35.09.38.11c.35.11.69.21,1,.3l.81.19.36.08.39.09c.35.08.71.17,1.07.24l1,.18.38.07.36.06.95.17,1,.13.4.05.39,0,.91.12,1.35.1.34,0,.33,0,.74.06c.93,0,1.87.07,2.79.07h296.3a54.35,54.35,0,0,0,54.32-54.41V159.53h0v-.06A54.42,54.42,0,0,0,455.91,105.22ZM105.22,159.63V355.92H57.51a7.64,7.64,0,0,1-7.64-7.64V57.51a7.64,7.64,0,0,1,7.64-7.64H348.28a7.64,7.64,0,0,1,7.64,7.64v47.71H159.55A54.42,54.42,0,0,0,105.22,159.63ZM461.15,453.51a7.65,7.65,0,0,1-7.64,7.64H162.73a7.65,7.65,0,0,1-7.64-7.64V162.73a7.65,7.65,0,0,1,7.64-7.64H453.51a7.65,7.65,0,0,1,7.64,7.64Z"/></svg>