<svg id="Layer_1" data-name="Layer 1" xmlns="http://www.w3.org/2000/svg" viewBox="0 0 538.47 510.24"><path d="M441.41,151.57a82,82,0,0,0-81.92-81.92H82A82,82,0,0,0,.05,151.57V429.09A82,82,0,0,0,82,511H359.49a82,82,0,0,0,81.92-81.92Zm-41,277.52a41,41,0,0,1-41,41H82a41,41,0,0,1-41-41V151.57a41,41,0,0,1,41-41H359.49a41,41,0,0,1,41,41Z"/><path d="M252.42,293.76l60.82-61.08a18.43,18.43,0,1,0-26.12-26l-60.7,60.95L225,266.18l-1.52,1.53-60.7-61a18.43,18.43,0,0,0-26.12,26l60.82,61.13-60.82,61.07a18.42,18.42,0,1,0,26.12,26L223.46,320l1.44,1.45,1.52-1.53,60.72,61a18.42,18.42,0,1,0,26.12-26Z"/><path d="M456.51-.77H179a82,82,0,0,0-81.07,70.2h41.83A41,41,0,0,1,179,40.19H456.51a41,41,0,0,1,40.95,41V358.67a41,41,0,0,1-40.95,41h-14.8v29.25a82.24,82.24,0,0,1-.84,11.71h15.64a82,82,0,0,0,81.91-81.92V81.14A82,82,0,0,0,456.51-.77Z"/></svg>