<svg id="Layer_1" data-name="Layer 1" xmlns="http://www.w3.org/2000/svg" viewBox="0 0 752 752"><g id="profile_picture_small_2" data-name="profile picture small 2"><path d="M376.1,751.49C168.84,751.49.22,582.87.22,375.61S168.84-.27,376.1-.27,752,168.36,752,375.61,583.35,751.49,376.1,751.49Zm0-693.93C200.73,57.56,58,200.24,58,375.61S200.73,693.67,376.1,693.67s318-142.69,318-318.06S551.47,57.56,376.1,57.56Z"/></g><path d="M342.47,482.42a3.28,3.28,0,0,1-3.26-3.36q.87-32.54,7.86-51.79,7.35-20.24,30-44.89l38.49-39.6q24.69-27.84,24.69-59.81,0-30.78-16.16-48.23T377,217.3q-30,0-48.18,15.86-17.14,14.94-18.16,39.49a3.25,3.25,0,0,1-3.24,3.12H259.63a3.27,3.27,0,0,1-3.26-3.41q1.69-45.24,33.85-73.42Q323.56,169.71,377,169.7q55.54,0,86.53,29.78t31,81.7q0,51.33-47.6,101.2L415,414l-.16.17q-20.61,22.92-21.34,65.1a3.26,3.26,0,0,1-3.26,3.17Zm-5.68,93.34q0-13.34,8.08-22.39t23.95-9q15.85,0,24.09,9t8.23,22.39q0,13.35-8.23,22.1t-24.09,8.75q-15.87,0-23.95-8.75T336.79,575.76Z"/></svg>