<svg id="Layer_1" data-name="Layer 1" xmlns="http://www.w3.org/2000/svg" viewBox="0 0 510.24 510.24"><path d="M255.12,1.2C114.88,1.2,1.2,114.88,1.2,255.12S114.88,509,255.12,509,509,395.35,509,255.12,395.35,1.2,255.12,1.2ZM407.8,407.8a215.13,215.13,0,1,1,46.29-68.65A215.37,215.37,0,0,1,407.8,407.8Z"/><path d="M250.41,366.28q-11.29,0-17,6.44a23,23,0,0,0-5.75,15.94q0,9.49,5.75,15.73t17,6.23q11.29,0,17.15-6.23t5.86-15.73a22.83,22.83,0,0,0-5.86-15.94Q261.71,366.29,250.41,366.28Z"/><path d="M256.27,99.62q-38.07,0-61.8,20.81t-24.16,54.69H209q0-19,13-30.33t34.3-11.29q22,0,33.46,12.42t11.5,34.33q0,22.74-17.56,42.57L256.27,251Q240.16,268.56,234.94,283t-5.65,39.26H268q0-31.74,15.27-48.66L306,251q33.88-35.5,33.89-72,0-37-22.07-58.16T256.27,99.62Z"/></svg>