<svg id="Layer_1" data-name="Layer 1" xmlns="http://www.w3.org/2000/svg" viewBox="0 0 510.24 510.24"><g id="Icons_File_-_Annotate_Artboard_1_copy_45" data-name="Icons File - Annotate Artboard 1 copy 45"><path id="Path_284" data-name="Path 284" d="M228.68,337l-80.26-80.27a5.61,5.61,0,0,0-7.95,0l-.12.12-29.1,29.62a5.76,5.76,0,0,0,0,7.95h0l125.3,124.75h0a26.46,26.46,0,0,0,37.15-.06L398.93,293.84a5.61,5.61,0,0,0,0-7.95l-.12-.12-29.62-29.06a5.76,5.76,0,0,0-8.05.1L281.5,337.05V89.22a5.65,5.65,0,0,0-1.67-4h0a5.61,5.61,0,0,0-4.08-1.65l-41.36.38a5.62,5.62,0,0,0-5.71,5.54V337Z"/></g></svg>