<svg id="Layer_1" data-name="Layer 1" xmlns="http://www.w3.org/2000/svg" viewBox="0 0 510.24 510.24"><path d="M501.37,300.54H462.76a9,9,0,0,0-8.87,9v82.27c0,21.87-17.52,39.67-39.07,39.67H95.42c-21.55,0-39.08-17.8-39.08-39.67V309.54a8.94,8.94,0,0,0-8.86-9H8.87a9,9,0,0,0-8.87,9v82.27c0,53.41,42.8,96.87,95.42,96.87h319.4c52.61,0,95.42-43.46,95.42-96.87V309.54A9,9,0,0,0,501.37,300.54Z"/><path d="M238.51,349.61h0a23.47,23.47,0,0,0,33.32,0L374.76,245a6.86,6.86,0,0,0-.05-9.65l-24.36-24.26a6.63,6.63,0,0,0-9.43.06l-62.11,63.54V240.61h0V28.35a6.8,6.8,0,0,0-2-4.83,6.67,6.67,0,0,0-4.77-2l-34,.33a6.76,6.76,0,0,0-6.62,6.79V72.63a3.25,3.25,0,0,0,0,.44V274.73l-62.61-63.57a6.57,6.57,0,0,0-4.73-2h0a6.6,6.6,0,0,0-4.74,2l-23.92,24.73a6.88,6.88,0,0,0,.05,9.57Z"/></svg>