<?xml version="1.0" encoding="UTF-8"?><svg id="Layer_1" xmlns="http://www.w3.org/2000/svg" viewBox="0 0 510.24 510.24"><path d="M434.1,76.14C386.29,28.33,322.73,2,255.12,2h0c-67.61,0-131.17,26.33-178.98,74.14C28.33,123.95,2,187.51,2,255.12s26.33,131.17,74.14,178.98c47.81,47.81,111.37,74.14,178.98,74.14s131.17-26.33,178.98-74.14c47.81-47.81,74.14-111.37,74.14-178.98s-26.33-131.17-74.14-178.98ZM255.12,457.43c-111.55,0-202.31-90.75-202.31-202.31S143.57,52.81,255.12,52.81c54.04,0,104.84,21.04,143.05,59.25,38.21,38.21,59.25,89.01,59.25,143.05,0,111.55-90.75,202.31-202.31,202.31Z"/><path d="M342.84,203.36c2.4-2.4,4.25-5.21,5.52-8.36,1.23-3.06,1.85-6.29,1.85-9.62,0-3.33-.62-6.57-1.85-9.62-1.27-3.15-3.12-5.96-5.52-8.36-2.4-2.4-5.21-4.25-8.36-5.52-3.06-1.23-6.29-1.85-9.62-1.85s-6.57,.62-9.62,1.85c-3.15,1.27-5.96,3.12-8.36,5.52l-46.97,46.97-4.78,4.78-4.78-4.78-46.97-46.97c-2.4-2.4-5.21-4.25-8.36-5.52-3.06-1.23-6.29-1.85-9.62-1.85-3.33,0-6.57,.62-9.62,1.85-3.15,1.27-5.96,3.12-8.36,5.52-2.4,2.4-4.25,5.21-5.52,8.36-1.23,3.05-1.85,6.29-1.85,9.62,0,3.33,.62,6.57,1.85,9.62,1.27,3.15,3.12,5.96,5.52,8.36l46.97,46.97,4.78,4.78-4.78,4.78-46.97,46.97c-2.4,2.4-4.25,5.21-5.52,8.36-1.23,3.06-1.85,6.29-1.85,9.62,0,3.33,.62,6.57,1.85,9.62,1.27,3.15,3.12,5.96,5.52,8.36,2.4,2.4,5.21,4.25,8.36,5.52,3.06,1.23,6.29,1.85,9.62,1.85s6.57-.62,9.62-1.85c3.15-1.27,5.96-3.12,8.36-5.52l46.97-46.97,4.78-4.78,4.78,4.78,46.97,46.98c2.4,2.4,5.21,4.25,8.36,5.52,3.06,1.23,6.29,1.85,9.62,1.85,3.33,0,6.57-.62,9.62-1.85,3.15-1.27,5.96-3.12,8.36-5.52s4.25-5.21,5.52-8.36c1.23-3.06,1.85-6.29,1.85-9.62s-.62-6.57-1.85-9.62c-1.27-3.15-3.12-5.96-5.52-8.36l-46.97-46.97-4.78-4.78,4.78-4.78,46.97-46.97Z"/></svg>