<svg id="Layer_1" data-name="Layer 1" xmlns="http://www.w3.org/2000/svg" viewBox="0 0 510.24 510.24"><path d="M445.55-.5H64.63A64.72,64.72,0,0,0,0,64.28V445.05c0,.56,0,1.11.05,1.66s0,1.09,0,1.63.08,1.08.13,1.62.07,1.12.12,1.67.14,1.05.21,1.58.12,1.11.21,1.66.18,1,.28,1.55.18,1.1.29,1.64.23,1,.35,1.52.24,1.08.37,1.61.29,1,.43,1.49.29,1.06.45,1.58.33,1,.49,1.46.34,1,.53,1.55.38,1,.57,1.45.38,1,.59,1.49.43,1,.65,1.43.42,1,.65,1.43.47.93.7,1.39.48.94.73,1.41.52.91.79,1.36.5.91.77,1.34.58.91.86,1.36.54.85.82,1.27.62.87.93,1.3.58.83.88,1.24.67.85,1,1.27.61.79.92,1.17.72.84,1.08,1.25.63.74,1,1.1.74.78,1.11,1.17.68.73,1,1.08.76.72,1.14,1.08.73.72,1.11,1.06.79.68,1.18,1,.77.69,1.17,1,.79.61,1.18.92.84.68,1.27,1,.8.57,1.21.86.88.64,1.33.94.84.54,1.26.81.91.6,1.37.88.83.48,1.25.72,1,.57,1.46.84l1.23.63,1.56.8,1.25.56c.54.25,1.07.5,1.62.73s.85.34,1.27.5,1.11.46,1.67.66.9.3,1.35.46l1.66.56c.46.14.93.26,1.39.39l1.68.48c.46.12.94.21,1.4.32s1.15.28,1.73.4,1.09.2,1.63.29,1,.2,1.56.28,1.13.15,1.69.22,1,.14,1.55.19c.67.07,1.34.11,2,.16.42,0,.84.07,1.27.09q1.65.09,3.33.09H445.59A64.71,64.71,0,0,0,510.23,445V64.09A64.68,64.68,0,0,0,445.55-.5Zm11.87,68.77V442a15,15,0,0,1-15,15H68.76a15,15,0,0,1-15-15V68.27a15,15,0,0,1,15-15h373.7A15,15,0,0,1,457.42,68.27Z"/><path d="M256.14,159.27a4.78,4.78,0,0,0,4.79-4.83l-.31-34.65a4.81,4.81,0,0,0-4.79-4.75h0l-117.58.33a22.07,22.07,0,0,0-21.9,21.95l0,117.81a4.8,4.8,0,0,0,4.79,4.79h0l34.65-.33a4.81,4.81,0,0,0,4.74-4.81l-.37-95.51Zm-96.9-.89h0v-.11h0v.11Z"/><path d="M392.49,251.7a4.78,4.78,0,0,0-3.37-1.38h-.05l-34.65.33a4.8,4.8,0,0,0-4.74,4.81l.37,95.5h-95.9a4.8,4.8,0,0,0-4.79,4.84l.31,34.65a4.81,4.81,0,0,0,4.79,4.75h0l117.58-.34A22.06,22.06,0,0,0,394,372.91l0-117.81A4.79,4.79,0,0,0,392.49,251.7Z"/></svg>