<svg id="Layer_1" data-name="Layer 1" xmlns="http://www.w3.org/2000/svg" viewBox="0 0 510.24 510.24"><path d="M432.69,77.55A251.12,251.12,0,0,0,77.55,432.69,251.12,251.12,0,0,0,432.69,77.55Zm-74,239.37A122.92,122.92,0,0,0,359,185.83L415.87,129a204.15,204.15,0,0,1,3,248.15Zm-27.1-65.83A76.44,76.44,0,1,1,309.17,197,76.53,76.53,0,0,1,331.56,251.09ZM377.22,91.27,321,147.54a122.94,122.94,0,0,0-131.66,0L133.1,91.35a204.18,204.18,0,0,1,244.12-.08ZM94.44,129.06l56.77,56.77a122.94,122.94,0,0,0,.36,131.09L91.35,377.14a203.91,203.91,0,0,1,3.09-248.08ZM129.06,415.8l60.8-60.8a122.94,122.94,0,0,0,130.52,0l60.8,60.8a203.93,203.93,0,0,1-252.12,0Z"/></svg>