<svg id="Layer_1" data-name="Layer 1" xmlns="http://www.w3.org/2000/svg" viewBox="0 0 510.24 510.24"><path d="M494.2,116A55.33,55.33,0,0,0,494,38.26L471.86,16.13a54.86,54.86,0,0,0-77.49,0L160.88,249.62a2,2,0,0,0-.77.1c-.12.12-.24,0-.34.1s-.23,0-.34.11a187.73,187.73,0,0,0-97,54C7.78,358.64.47,480.21.25,485.28a23.26,23.26,0,0,0,6.87,17.94,23.49,23.49,0,0,0,17.93,6.87c5.21-.32,126.65-7.53,181.33-62.22a187,187,0,0,0,54-97,.48.48,0,0,1,.1-.33c.12-.12,0-.24.1-.34s.12-.56.11-.78ZM173,414.69c-27,27-84.59,40.28-123.13,45.58,5.42-38.62,18.7-96.19,45.62-123.1A148.69,148.69,0,0,1,157,299.05l54.12,54.12A150.66,150.66,0,0,1,173,414.69Zm60.86-105.21-33.2-33.2,227-226.95a7.76,7.76,0,0,1,11-.08l.09.08,22.14,22.15a7.76,7.76,0,0,1,.09,11l-.09.08Z"/><path d="M31,157.66c12.13,22.58,27.45,46.45,45.37,70.87a6.75,6.75,0,0,0,10.21.78l24.69-24.69a6.73,6.73,0,0,0,.71-8.7,551.35,551.35,0,0,1-38.71-61c-26.71-49.7-27.57-77.31-21.84-83C53.19,50.17,56.91,49,62.62,49c13.24,0,37.17,6.05,71.87,24.71a549,549,0,0,1,61,38.71,6.74,6.74,0,0,0,8.7-.71l24.69-24.69a6.75,6.75,0,0,0-.78-10.21c-24.41-17.92-48.29-33.25-70.86-45.38-28.62-15.39-54.07-25-75.64-28.68C62.5-.43,35.89-.42,17.52,18S-.88,62.94,2.35,82C6,103.59,15.64,129,31,157.66Z"/><path d="M478.54,352.79c-12-22.34-27.16-46-44.85-70.14a6.74,6.74,0,0,0-10.21-.78l-24.7,24.69a6.73,6.73,0,0,0-.71,8.69,549.38,549.38,0,0,1,38.19,60.27c26.72,49.69,27.58,77.3,21.85,83s-33.34,4.86-83-21.85a548.6,548.6,0,0,1-60.27-38.2,6.73,6.73,0,0,0-8.69.72l-24.7,24.69a6.74,6.74,0,0,0,.79,10.21A606.19,606.19,0,0,0,352.35,479C381,494.37,406.42,504,428,507.67a111.49,111.49,0,0,0,18.44,1.62c15.62,0,32.67-3.83,45.63-16.79,18.38-18.38,18.39-45,15.17-64.07C503.58,406.86,493.93,381.42,478.54,352.79Z"/></svg>