<?xml version="1.0" encoding="UTF-8"?><svg id="Layer_1" xmlns="http://www.w3.org/2000/svg" viewBox="0 0 510.24 510.24"><path d="M434.1,76.14C386.29,28.33,322.73,2,255.12,2h0c-67.61,0-131.17,26.33-178.98,74.14C28.33,123.95,2,187.51,2,255.12s26.33,131.17,74.14,178.98c47.81,47.81,111.37,74.14,178.98,74.14s131.17-26.33,178.98-74.14c47.81-47.81,74.14-111.37,74.14-178.98s-26.33-131.17-74.14-178.98ZM255.12,457.43c-111.55,0-202.31-90.75-202.31-202.31S143.57,52.81,255.12,52.81c54.04,0,104.84,21.04,143.05,59.25s59.25,89.01,59.25,143.05c0,111.55-90.75,202.31-202.31,202.31Z"/><path d="M255.12,126.78c-18,0-32.6,14.59-32.6,32.6s14.6,32.6,32.6,32.6,32.6-14.59,32.6-32.6-14.59-32.6-32.6-32.6Z"/><rect x="229.12" y="226.27" width="52" height="157.19" rx="8.44" ry="8.44"/></svg>