<svg id="Layer_1" data-name="Layer 1" xmlns="http://www.w3.org/2000/svg" viewBox="0 0 510.24 510.24"><path d="M445.54.68H65.64A64.53,64.53,0,0,0,1.18,65.29V445c0,.56,0,1.11,0,1.67s0,1.08.05,1.61.08,1.11.12,1.66.07,1.08.13,1.62.13,1.08.2,1.61.13,1.09.21,1.62.19,1.05.28,1.58.18,1.07.29,1.6.24,1,.36,1.55.23,1.06.36,1.57.29,1,.44,1.54.28,1,.44,1.53.34,1,.51,1.52.32,1,.5,1.48.39,1,.59,1.48.37,1,.57,1.45.44,1,.65,1.45.42.94.64,1.41.49.95.74,1.43.45.91.69,1.35.55,1,.83,1.44.47.85.73,1.26.59.92.88,1.38.52.84.8,1.25.61.86.92,1.3l.88,1.23c.32.42.66.84,1,1.25s.61.8.93,1.19.7.81,1.05,1.21.64.76,1,1.13.74.78,1.12,1.17.67.72,1,1.07.75.71,1.12,1.07.74.72,1.12,1.07.74.64,1.11,1,.82.72,1.24,1.07.78.61,1.17.92l1.26,1c.41.31.84.59,1.25.89s.85.62,1.29.91.79.51,1.18.76.95.63,1.44.92.74.42,1.11.64c.53.31,1.05.62,1.59.92s.79.4,1.18.6,1.06.56,1.61.82c.37.18.76.34,1.14.52.57.26,1.14.53,1.72.77.37.16.74.29,1.11.44.61.24,1.21.49,1.82.72.41.15.82.27,1.23.41.59.21,1.17.42,1.77.6.41.13.83.24,1.25.36.6.17,1.2.36,1.82.51.43.11.86.2,1.3.3.6.15,1.21.3,1.82.42s.95.17,1.43.26,1.16.22,1.75.31,1,.13,1.51.19,1.14.16,1.72.22,1.36.11,2,.16c.42,0,.82.07,1.24.09,1.1.06,2.21.09,3.32.09H445.59A64.54,64.54,0,0,0,510.05,445V65.1A64.51,64.51,0,0,0,445.54.68ZM457.38,442a14.9,14.9,0,0,1-10.48,14.25,15.1,15.1,0,0,1-4.44.67H69.76A14.82,14.82,0,0,1,64,455.71a15,15,0,0,1-3.68-2.23,15.05,15.05,0,0,1-3.63-4.4,14.86,14.86,0,0,1-1.8-7.11V69.26a14.86,14.86,0,0,1,1.8-7.11,15.05,15.05,0,0,1,3.63-4.4A15,15,0,0,1,64,55.52a14.82,14.82,0,0,1,5.81-1.18h372.7a14.94,14.94,0,0,1,14.92,14.92Z"/><rect x="127.77" y="335.75" width="256.68" height="52" rx="14.62"/></svg>