<svg id="Layer_1" data-name="Layer 1" xmlns="http://www.w3.org/2000/svg" viewBox="0 0 510.24 510.24"><path d="M510.24,191.32a75.3,75.3,0,0,0-85.76-74.66C359.74,60.59,248.6,46.53,209.2,43.23A75.39,75.39,0,0,0,65.63,75.39v.1C22.83,114.33,4.08,155.23,9.89,197.18c5.16,37.2,29.35,72.46,71.89,104.81A352.84,352.84,0,0,0,130,332.62a75.45,75.45,0,0,0,52.23,62.18v44.71c0,11.65-4.43,15.94-5.89,17.35-7.49,7.24-21.93,8.5-26.58,8.36l-.32,0H9a9,9,0,0,0-9,9v26.93a9,9,0,0,0,9,9H148.3c.52,0,1.23,0,2.11,0,9.22,0,36.93-1.69,56.88-20.68,9.11-8.67,20-24.39,20-50V394.8a75.35,75.35,0,0,0,33.21-21.18q18.86,1.11,36.26,1.11c83,0,141-18.86,172.63-56.28,25.91-30.64,26-64.47,24.27-79.95A75.07,75.07,0,0,0,510.24,191.32Zm-38,0a37.39,37.39,0,1,1-37.39-37.39A37.44,37.44,0,0,1,472.24,191.32ZM141,38a37.39,37.39,0,1,1-37.38,37.39A37.43,37.43,0,0,1,141,38Zm63.75,322.22a37.39,37.39,0,1,1,37.39-37.38A37.42,37.42,0,0,1,204.76,360.22Zm92.6-30.46c-5.62,0-11.47-.1-17.52-.29.19-2.19.31-4.4.31-6.63a75.39,75.39,0,0,0-141.21-36.75,299.47,299.47,0,0,1-30.64-20.47c-22.22-17-49.59-43.78-53.84-74.7-3-22,6.27-45,27.67-68.48a75.37,75.37,0,0,0,133-33.39C252.49,93,329.32,105,380.26,139.37a75.34,75.34,0,0,0,67.1,126.28A59.8,59.8,0,0,1,435,289.39C418.7,308.67,381.6,329.76,297.36,329.76Z"/></svg>