<svg id="Layer_1" data-name="Layer 1" xmlns="http://www.w3.org/2000/svg" viewBox="0 0 538.47 510.24"><path d="M509.73,325.18,396.85,256.65l112.33-64.51a26,26,0,0,0,.55-44.85L273.35,3.78a26.05,26.05,0,0,0-27.85.52L27.92,147.81a26.05,26.05,0,0,0,.55,43.84l104.16,65L27.92,325.7a26.05,26.05,0,0,0,.55,43.84L246.05,505.29a26,26,0,0,0,26.76.49L509.18,370a26,26,0,0,0,.55-44.84ZM260.41,56.86,445,168.93,260.39,275,90.48,169Zm0,396-169.91-106L181.24,287l64.81,40.43a26,26,0,0,0,26.76.49l72.47-41.62L445,346.81Z"/></svg>