<svg id="Layer_1" data-name="Layer 1" xmlns="http://www.w3.org/2000/svg" viewBox="0 0 510.24 510.24"><g id="Icons_File_-_Annotate_Artboard_1_copy_45" data-name="Icons File - Annotate Artboard 1 copy 45"><path id="Path_284" data-name="Path 284" d="M173.28,228.68l80.27-80.26a5.63,5.63,0,0,0,0-7.95l-.12-.12-29.62-29.1a5.76,5.76,0,0,0-7.95,0h0L91.11,236.55h0a26.45,26.45,0,0,0,.06,37.15L216.4,398.93a5.61,5.61,0,0,0,7.95,0l.12-.12,29.06-29.62a5.77,5.77,0,0,0-.1-8.05L173.18,281.5H421a5.67,5.67,0,0,0,4.06-1.67h0a5.66,5.66,0,0,0,1.65-4.08l-.38-41.36a5.63,5.63,0,0,0-5.54-5.71H173.28Z"/></g></svg>