<svg id="Layer_1" data-name="Layer 1" xmlns="http://www.w3.org/2000/svg" viewBox="0 0 510.24 510.24"><defs><style>.cls-1{fill:#1d1d1b;}</style></defs><path class="cls-1" d="M445.55-.5H64.63A64.71,64.71,0,0,0,0,64.28V445.05c0,.57,0,1.12.05,1.68s0,1.08,0,1.61.08,1.1.13,1.65.07,1.09.12,1.64.14,1.07.21,1.6.13,1.1.21,1.64.19,1.05.28,1.58.18,1.07.29,1.61.24,1,.36,1.55.23,1.06.36,1.58.3,1,.44,1.54.28,1,.44,1.53.34,1,.51,1.51.33,1,.51,1.5.39,1,.59,1.49.37,1,.57,1.45.45,1,.68,1.5.4.91.62,1.36.5,1,.75,1.48.44.88.68,1.31.56,1,.84,1.47.47.84.72,1.24.6.95.91,1.43.51.81.77,1.2.65.92,1,1.38.54.78.83,1.16.7.89,1,1.34.57.74.87,1.1.76.88,1.14,1.32.59.7.9,1,.79.84,1.19,1.25l.95,1c.4.4.82.78,1.23,1.17s.67.66,1,1,.85.74,1.27,1.1.71.63,1.08.94l1.27,1c.39.3.78.62,1.18.92s.85.61,1.28.91.83.61,1.26.89.88.57,1.32.85.86.57,1.31.84.87.5,1.3.75.93.55,1.41.81.86.44,1.29.66,1,.52,1.5.77L38,504c.52.23,1,.48,1.56.7s.89.35,1.33.53,1.07.43,1.61.63.94.32,1.41.48,1.06.37,1.6.54,1,.27,1.45.41,1.08.32,1.62.46L50,508c.56.13,1.12.28,1.69.39s1.11.2,1.67.3,1,.19,1.52.27,1.15.15,1.72.22,1,.14,1.52.19c.67.07,1.34.11,2,.16.42,0,.84.07,1.27.09q1.65.09,3.33.09H445.59A64.71,64.71,0,0,0,510.23,445V64.09A64.68,64.68,0,0,0,445.55-.5Zm11.87,68.77V442a15,15,0,0,1-15,15H68.76a15,15,0,0,1-15-15V68.27a15,15,0,0,1,15-15h373.7A15,15,0,0,1,457.42,68.27Z"/><path class="cls-1" d="M191.41,159.27h94.73a4.78,4.78,0,0,0,4.79-4.83l-.31-34.65a4.81,4.81,0,0,0-4.79-4.75h0l-147.58.33h0a22.07,22.07,0,0,0-21.9,21.95l0,147.81a4.8,4.8,0,0,0,4.84,4.79l34.64-.33a4.81,4.81,0,0,0,4.75-4.81l-.36-94.37L306.49,336.67a4.72,4.72,0,0,0,3.38,1.41h0a4.77,4.77,0,0,0,3.39-1.44L337.45,312a4.8,4.8,0,0,0,0-6.74Z"/></svg>