<svg id="Layer_1" data-name="Layer 1" xmlns="http://www.w3.org/2000/svg" viewBox="0 0 510.24 510.24"><defs><style>.cls-1{fill:#1d1d1b;}</style></defs><path class="cls-1" d="M510.25,63.51c0-.54,0-1.08,0-1.61s-.09-1.1-.13-1.65-.07-1.1-.12-1.64-.14-1.07-.21-1.6-.13-1.1-.21-1.64-.19-1-.28-1.58-.18-1.08-.29-1.61-.24-1-.36-1.55-.23-1.06-.36-1.58-.29-1-.44-1.53-.28-1-.44-1.54-.34-1-.51-1.53-.33-1-.51-1.48-.4-1-.59-1.51-.37-1-.57-1.43-.45-1-.68-1.51-.4-.91-.62-1.36-.51-1-.76-1.49-.44-.87-.67-1.3-.55-1-.83-1.44-.48-.85-.73-1.27-.6-.94-.91-1.42-.51-.81-.77-1.2-.66-.93-1-1.39-.54-.77-.82-1.15-.7-.89-1.05-1.34-.57-.74-.87-1.11-.74-.85-1.1-1.27l-.94-1.08c-.37-.41-.77-.8-1.15-1.21s-.66-.7-1-1-.8-.77-1.21-1.15l-1-1c-.41-.37-.83-.72-1.25-1.07s-.73-.65-1.1-1-.85-.67-1.28-1-.77-.63-1.17-.92-.86-.62-1.29-.92l-1.25-.89c-.44-.3-.89-.57-1.34-.86s-.85-.56-1.29-.82-.89-.51-1.33-.77-.91-.54-1.38-.79-.86-.44-1.29-.66-1-.53-1.5-.77-.88-.39-1.31-.59-1-.48-1.56-.71l-1.33-.52c-.54-.21-1.07-.44-1.61-.63s-.89-.3-1.33-.45-1.11-.4-1.68-.57-.89-.25-1.33-.38-1.16-.34-1.74-.49-1-.22-1.44-.34-1.12-.27-1.69-.39-1.11-.2-1.67-.29-1-.2-1.52-.28-1.15-.14-1.72-.21-1-.15-1.52-.2c-.67-.06-1.34-.1-2-.15-.42,0-.84-.08-1.27-.1-1.1,0-2.21-.08-3.33-.08H64.7A64.71,64.71,0,0,0,.06,65.28V446.14a64.68,64.68,0,0,0,64.68,64.59H445.66A64.71,64.71,0,0,0,510.3,446V65.18C510.29,64.62,510.27,64.07,510.25,63.51ZM52.87,68.27a15,15,0,0,1,15-15h373.7a15,15,0,0,1,15,15V442a15,15,0,0,1-15,15H67.83a15,15,0,0,1-15-15Z"/><path class="cls-1" d="M318.88,351H224.15a4.78,4.78,0,0,0-4.79,4.84l.31,34.65a4.81,4.81,0,0,0,4.79,4.75h0l147.58-.34h0A22.06,22.06,0,0,0,394,372.91l0-147.81a4.79,4.79,0,0,0-1.42-3.4,4.85,4.85,0,0,0-3.42-1.38l-34.65.33a4.8,4.8,0,0,0-4.74,4.81l.36,94.36L203.8,173.56a4.67,4.67,0,0,0-3.41-1.4A4.77,4.77,0,0,0,197,173.6l-24.16,24.62a4.8,4.8,0,0,0,0,6.74Z"/></svg>