<svg id="Layer_1" data-name="Layer 1" xmlns="http://www.w3.org/2000/svg" viewBox="0 0 510.24 510.24"><path d="M509.12,33.51h0a28.13,28.13,0,0,0-28-27.9l-168.31.06a6.11,6.11,0,0,0-6.1,6.16L307.17,56a6.1,6.1,0,0,0,6.12,6l100.23-.46L270.32,204.71a6.06,6.06,0,0,0-1.79,4.31v0a6.09,6.09,0,0,0,1.83,4.33l31.37,30.78a6.13,6.13,0,0,0,8.59,0L453.19,101.25V201.94a6.09,6.09,0,0,0,6.16,6.1l44.14-.4a6.12,6.12,0,0,0,6.05-6.1v0Z"/><path d="M457.27,341.84l-.1.06v98.53a11.26,11.26,0,0,1-3.32,7.93,11.12,11.12,0,0,1-7.86,3.25H369.26l-52.9-54.22-116-118.91L184.26,262a26,26,0,0,0-18.73-7.85,26.4,26.4,0,0,0-17,6.2L53,341.84V69.93A11.32,11.32,0,0,1,64.25,58.72H204.72V6.6H64.16A63.63,63.63,0,0,0,.7,69.86V440.45a63.57,63.57,0,0,0,63.44,63.18h382a63.61,63.61,0,0,0,63.44-63.25V310.48H457.27Zm-393,109.7A11.34,11.34,0,0,1,53,440.39V410.46l110.92-94.58L296.25,451.54Z"/></svg>