<svg id="Layer_1" data-name="Layer 1" xmlns="http://www.w3.org/2000/svg" viewBox="0 0 510.24 510.24"><path d="M498.49,346.68a27.55,27.55,0,0,0-8-17.14l-72.82-72.82-38.85,38.85,64,64,1.79,1.79.22,2.53,6.72,79.48.67,8-8-.51-81.62-5.17L360,445.5l-1.85-1.86L133.34,218.69l-4.9-4.91,4.91-4.9,74.55-74.4L251.68,90.7,188.46,27.48a87.78,87.78,0,0,0-123.77,0l-38.41,38,0,0h0a87.79,87.79,0,0,0,0,124.15L328.34,491.71a27.51,27.51,0,0,0,17.77,8l134.11,8.59h2c.74,0,1.49,0,2.23-.1a27.55,27.55,0,0,0,25.1-29.75ZM89.59,175.11l-4.91-4.91L65.31,150.83a32.82,32.82,0,0,1,0-46.31l38.07-38.07a32.77,32.77,0,0,1,46.31,0l19.37,19.38,4.9,4.9-4.9,4.9L94.49,170.2Z"/><path d="M509.81,27.47h0a28.12,28.12,0,0,0-28-27.9l-168.31,0a6.09,6.09,0,0,0-6.1,6.16l.43,44.15A6.11,6.11,0,0,0,314,56l100.22-.46L271,198.68a6.06,6.06,0,0,0-1.79,4.31v0a6.09,6.09,0,0,0,1.83,4.33l31.37,30.77a6.11,6.11,0,0,0,8.59,0L453.89,95.21V195.9A6.08,6.08,0,0,0,460,202l44.15-.4a6.11,6.11,0,0,0,6.05-6.1h0Z"/></svg>