<svg id="Layer_1" data-name="Layer 1" xmlns="http://www.w3.org/2000/svg" viewBox="0 0 512 512"><path d="M327.9-.11H112A66.24,66.24,0,0,0,45.81,66.05V444.83A66.24,66.24,0,0,0,112,511H405a66.24,66.24,0,0,0,66.16-66.16V143.22Zm3.31,77.93,55.48,55.24H340c-4,.06-8.4-3.2-8.75-7.21Zm87.41,367A13.63,13.63,0,0,1,405,458.4H112a13.61,13.61,0,0,1-13.61-13.59V66.05A13.63,13.63,0,0,1,112,52.44H278.66V126a60.87,60.87,0,0,0,60.64,59.55l.93,0h78.39Z"/><path d="M353.72,360.59h-190a26,26,0,1,0,0,52h190a26,26,0,0,0,0-52Z"/><path d="M137.72,289.59a26,26,0,0,0,26,26h190a26,26,0,0,0,0-52h-190A26,26,0,0,0,137.72,289.59Z"/></svg>