<svg id="Layer_1" data-name="Layer 1" xmlns="http://www.w3.org/2000/svg" viewBox="0 0 512 512"><path d="M182.32,493.69l303.5-303.5a88.09,88.09,0,0,0,.09-124.37l-.11-.1L447.23,27.58a88.21,88.21,0,0,0-124,0L19.69,331.06a27.54,27.54,0,0,0-8,17.08L.59,480.52a27.43,27.43,0,0,0,25,29.65c.73.06,1.48.1,2.22.1h2l134.83-8.63A27.44,27.44,0,0,0,182.32,493.69ZM361.82,66.41a33.2,33.2,0,0,1,46.85,0l38.25,38.25a33.2,33.2,0,0,1,0,46.85h0l-24.55,24.55L337.27,91Zm-304,387.11,7.68-90.78L298.54,129.67l85.11,84.93-232.84,233Z"/></svg>