<?xml version="1.0" encoding="UTF-8"?><svg id="Layer_1" xmlns="http://www.w3.org/2000/svg" viewBox="0 0 510.24 510.24"><path d="M500.1,308.38l-43.01-.03c-5.54,0-10.05,4.51-10.05,10.05v120.29c0,5.22-4.27,9.47-9.49,9.49H71.41c-2.47-.35-4.93-.96-6.74-2.75-1.81-1.79-2.81-4.18-2.83-6.7V72.56c0-5.22,4.26-9.48,9.48-9.49h120.41c5.54,0,10.05-4.51,10.05-10.05V10.02c-.03-5.5-4.52-10-10.05-10.02H68.39l-5.82,.09-23.98,6.75-20.86,15.6c-.55,.6-1.03,1.19-.95,1.19h0l-2.54,2.98L4.8,43.1c-.23,.5-.55,1.31-.77,1.94l4.86,1.74-5.32-.38c-.19,.54-.45,1.27-.67,2.06-.18,.62-.46,1.56-.33,1.78l4.78,1.95h0l-5.21-.63,5.02,1.22h0l-5.45,.19-.4,1.71c-.15,.61-.23,1.07-.37,2l-.51,3.5,5.15,.48-5.32,.94L.09,441.73c.03,37.78,30.79,68.5,68.59,68.5H441.59c37.73-.06,68.43-30.8,68.45-68.53v-123.27c0-5.51-4.45-9.99-9.95-10.05ZM12.13,39.65h0Zm-5.4,14.59h0Z"/><path d="M264.25,275c2.11,2.08,4.89,3.12,7.66,3.12s5.59-1.05,7.72-3.15L446.57,108.05v101.6c0,6.02,4.9,10.92,11.03,10.92l41.74-.38c5.93-.08,10.78-4.98,10.8-10.94l-.4-172.54h.06l-.04-5.2c-.13-17.27-14.3-31.41-31.6-31.5h-177.98c-6.03,0-10.93,4.9-10.93,11.02l.42,41.74c.08,5.96,5,10.81,10.97,10.81l101.12-.39L234.49,230.41c-2.06,2.07-3.19,4.83-3.18,7.73,0,2.92,1.2,5.76,3.28,7.77l29.65,29.08Z"/></svg>