<svg id="Layer_1" data-name="Layer 1" xmlns="http://www.w3.org/2000/svg" viewBox="0 0 510.24 510.24"><path d="M416.8,64.3H375.51V52.23h0v-.06A52.4,52.4,0,0,0,323.19-.08H186.83a52.42,52.42,0,0,0-52.33,52.4v12H93.44a54.42,54.42,0,0,0-54.33,54.41V456c0,.34,0,.67,0,1l0,.39v.39l0,1c0,.33,0,.66.08,1l0,.38,0,.39c0,.34,0,.67.09,1s.07.64.11,1l.05.37,0,.38c0,.34.08.68.13,1s.11.63.17.94l.07.37.06.37.18,1,.21.92.09.36.08.38c.08.32.15.65.23,1s.17.6.25.89l.11.36.1.36c.09.33.18.65.28,1s.19.59.29.88l.12.35.12.35c.1.32.21.64.33.95s.22.59.34.88l.13.34.14.34c.12.31.23.61.36.91s.25.57.38.86l.16.34.15.34c.13.29.26.58.4.87l.42.83.17.33.17.33.44.85.48.83.18.32.19.33c.15.27.3.54.46.8s.35.56.53.83l.2.31.19.3.5.76c.18.27.37.53.56.79l.21.31.22.3c.17.25.34.49.52.73s.41.53.61.78l.23.29.23.3.55.69c.22.26.44.52.67.77l.24.28.22.26c.19.22.38.45.58.66s.44.48.67.71l.26.27.25.27.62.64.69.66.26.25.26.25.68.64c.23.21.47.42.72.62l.27.24.27.23c.23.21.47.42.71.61l.7.56.29.22.29.23c.26.21.51.41.78.61s.48.35.72.52l.29.2.29.21c.27.2.55.39.83.58s.5.33.75.49l.31.19.3.2.84.54.75.43.31.18.32.19.9.51.73.37.31.16.31.16,1,.51.73.33.32.14.34.16c.34.16.67.31,1,.45s.49.2.73.3l.33.13.35.14,1.06.41c.26.1.53.19.8.27l.33.11.35.12c.35.12.69.25,1,.35s.54.16.81.24l.35.1.38.11,1,.29.81.19.36.08.39.09c.35.09.71.17,1.07.24l1,.18.38.07.36.07.95.16,1,.14.4,0,.39.06L88,510l1.34.1.35,0,.33,0c.24,0,.49.05.74.06.92,0,1.86.07,2.79.07h323.3a54.35,54.35,0,0,0,54.32-54.41V118.62h0v0A54.42,54.42,0,0,0,416.8,64.3ZM180.37,55.42A9.65,9.65,0,0,1,190,45.78H320.78a9.65,9.65,0,0,1,9.64,9.64V106.2a9.65,9.65,0,0,1-9.64,9.64H190a9.65,9.65,0,0,1-9.64-9.64ZM422,453.59a7.65,7.65,0,0,1-7.64,7.64H96.62A7.65,7.65,0,0,1,89,453.59V121.81a7.65,7.65,0,0,1,7.64-7.64h38.19c0,.21.05.43.07.64l.06.39,0,.39c0,.32.08.64.13,1s.1.59.15.88l.07.38.07.39c0,.31.11.62.17.93s.13.57.2.86l.09.38.08.39c.07.3.14.6.22.9s.15.56.23.84l.11.37.1.38c.09.3.17.6.27.9s.17.55.27.82l.12.36.13.37c.1.3.19.59.3.88s.21.55.32.82l.14.36.14.35c.11.29.22.57.34.85l.36.81.16.35.16.36c.12.27.24.54.37.8s.26.52.4.78l.17.34.18.35.41.79c.14.27.29.52.44.78l.2.33.18.33c.15.25.29.51.44.75s.32.52.49.77l.21.33.21.32.45.71.54.75.21.3.22.31c.16.23.32.46.5.69s.37.49.57.73l.23.3.23.29.52.66.62.72.25.29.25.29.52.6c.21.23.43.45.64.67l.26.27.26.27c.19.21.38.41.58.61l.64.61.28.26.28.27.62.59.66.57.29.25.29.26.66.57.65.51.3.23.29.23c.24.2.49.39.74.58l.66.47.31.22.32.23.76.54.71.46.32.2.32.21.78.49c.22.14.45.27.68.39l.33.2.34.19.84.48.67.35.33.16.34.18.92.47.69.31.33.15.32.15c.33.15.65.3,1,.44l.68.27.34.13.36.15,1,.39.73.24.36.12.38.14,1,.32.75.21.37.11.38.11,1,.27c.25.07.5.13.76.18l.37.09.37.09,1,.23.92.17.4.06.39.08.87.15,1,.13.4,0,.39.06.86.1,1.27.1.36,0,.36,0,.67.05c.89,0,1.8.07,2.69.07H323.2a52.43,52.43,0,0,0,52-46.76h39.18a7.65,7.65,0,0,1,7.64,7.64Z"/></svg>