<?xml version="1.0" encoding="UTF-8"?><svg id="a" xmlns="http://www.w3.org/2000/svg" viewBox="0 0 287.69 288.24"><path d="M279.57,124.17L163.66,8.27c-2.83-2.83-6.56-4.38-10.6-4.37-4,0-7.76,1.57-10.59,4.4-2.83,2.83-4.38,6.6-4.38,10.6l-.02,46.09-54.88,54.88-45.98-.08h-.01c-4,0-7.76,1.56-10.58,4.38-2.83,2.82-4.39,6.59-4.4,10.59,0,4,1.55,7.77,4.38,10.61l45.13,45.13L9.05,253.14c-1.72,1.72-3.06,3.74-3.97,6.01-.89,2.21-1.34,4.54-1.34,6.95s.45,4.75,1.33,6.95c.91,2.26,2.24,4.29,3.97,6.01,1.72,1.72,3.74,3.06,6.01,3.97,4.41,1.77,9.49,1.77,13.9,0,2.26-.91,4.28-2.24,6.01-3.97l62.66-62.66,44.86,44.86c2.83,2.82,6.58,4.37,10.57,4.37h.03c4,0,7.76-1.57,10.59-4.4,2.83-2.83,4.39-6.6,4.38-10.6v-45.01l55.86-55.86,45.02-.02h.01c4,0,7.76-1.56,10.58-4.38,2.83-2.82,4.39-6.58,4.4-10.59,0-4-1.55-7.77-4.38-10.61Zm-61.85-4.4c-3.95,0-7.81,1.61-10.6,4.4l-64.63,64.63c-2.83,2.83-4.4,6.59-4.4,10.6v15.06l-64.61-64.62,15.92,.02c3.95,0,7.81-1.61,10.6-4.4l63.8-63.8c2.81-2.87,4.32-6.66,4.27-10.64v-15.95l64.71,64.71h-15.06Z"/></svg>