<svg id="Layer_1" data-name="Layer 1" xmlns="http://www.w3.org/2000/svg" viewBox="0 0 512 512"><path d="M449,170.94c-.32-7.72-3.15-14.41-8-18.84a27.48,27.48,0,0,0-18.75-7.67H365.44V26.73a27.25,27.25,0,0,0-7.82-18.9C352.67,2.87,345-.25,338.51,0c-7.73.33-14.42,3.15-18.87,8A27.76,27.76,0,0,0,312,26.73v117.7H200.36V26.73a27.25,27.25,0,0,0-7.82-18.9c-4.95-5-12.63-8.09-19.11-7.81C165.7.35,159,3.17,154.59,8a27.48,27.48,0,0,0-7.67,18.75v117.7l-10.27,0c-7.6,0-15.46-.06-23.14,0H99.29c-2.88,0-5.85,0-8.7,0H90a27.25,27.25,0,0,0-18.9,7.82c-5,5-8.1,12.64-7.82,19.11.33,7.73,3.16,14.42,8,18.84a28.12,28.12,0,0,0,15,7.4v60.85c0,25.29,3.54,46.64,10.84,65.26a192,192,0,0,0,11.08,24.08,175.33,175.33,0,0,0,13.16,19.57,165.25,165.25,0,0,0,15.41,17.79,190.62,190.62,0,0,0,20,16.76c20.52,15.35,45.57,25.68,72.68,30v53.33A26.73,26.73,0,0,0,255.57,512l.82,0c7.72-.33,14.41-3.15,18.84-8a27.5,27.5,0,0,0,7.67-18.75V432a167.13,167.13,0,0,0,64.47-24.38c27.5-17.83,49-42,62-70,7.41-15.91,12.09-30.83,14.3-45.63a201,201,0,0,0,2.34-30.39V214.11q0-7.06,0-14.12v-2.4a27.4,27.4,0,0,0,15.12-7.54C446.18,185.1,449.32,177.42,449,170.94ZM163.49,335a139.22,139.22,0,0,1-15.26-26.64,142.41,142.41,0,0,1-7.67-28.83c-1.08-10.32-1-21.06-.92-31.45,0-2.79,0-5.57,0-8.34v-41.9h32.69c.46,0,.92,0,1.37,0h163.7c.47,0,.92,0,1.38,0h33.72v60.78a205,205,0,0,1-.84,20.76A137.66,137.66,0,0,1,364.15,308a141.81,141.81,0,0,1-15.58,27.2,140.53,140.53,0,0,1-21.69,21.65,139.8,139.8,0,0,1-26.64,15.27,143.71,143.71,0,0,1-29.19,7.72,147.85,147.85,0,0,1-14.87.82,141.47,141.47,0,0,1-15.45-.87,137.27,137.27,0,0,1-28.39-7.52,141.81,141.81,0,0,1-27.2-15.58A140.53,140.53,0,0,1,163.49,335Z"/></svg>