<svg id="Layer_1" data-name="Layer 1" xmlns="http://www.w3.org/2000/svg" viewBox="0 0 510.24 510.24"><path d="M462,364.46V145.77A75.39,75.39,0,1,0,365.6,45.94H145.23a75.39,75.39,0,1,0-96.79,99.68v219a75.39,75.39,0,1,0,96.79,99.69H365.6A75.39,75.39,0,1,0,462,364.46ZM361.24,419.3H149.59a75.46,75.46,0,0,0-56.15-57.74V148.68a75.49,75.49,0,0,0,56.15-57.74H361.24A75.46,75.46,0,0,0,417,148.59V361.64A75.48,75.48,0,0,0,361.24,419.3ZM435,38a37.39,37.39,0,1,1-37.38,37.39A37.43,37.43,0,0,1,435,38ZM75.82,38A37.39,37.39,0,1,1,38.43,75.39,37.43,37.43,0,0,1,75.82,38Zm0,434.24a37.39,37.39,0,1,1,37.38-37.39A37.43,37.43,0,0,1,75.82,472.24Zm359.19,0a37.39,37.39,0,1,1,37.39-37.39A37.43,37.43,0,0,1,435,472.24Z"/></svg>