<svg id="Layer_1" data-name="Layer 1" xmlns="http://www.w3.org/2000/svg" viewBox="0 0 287.69 288.24"><path d="M250.19,238.83a21.78,21.78,0,0,0,0-16.14,20.85,20.85,0,0,0-4.63-7L178,148.13l-4-4,4-4,67.74-67.74a20.82,20.82,0,0,0,4.62-7,21.65,21.65,0,0,0,0-16.14,20.91,20.91,0,0,0-11.63-11.64,21.78,21.78,0,0,0-16.14,0,20.85,20.85,0,0,0-7,4.63L147.86,110l-4,4-4-4L72.29,42.41a20.85,20.85,0,0,0-7-4.63,21.78,21.78,0,0,0-16.14,0A21,21,0,0,0,37.5,49.42a21.76,21.76,0,0,0,0,16.13,20.9,20.9,0,0,0,4.63,7l67.55,67.55,4,4-4,4L41.94,215.87a20.85,20.85,0,0,0-4.63,7,21.78,21.78,0,0,0,0,16.14A21,21,0,0,0,49,250.66a21.78,21.78,0,0,0,16.14,0,20.85,20.85,0,0,0,7-4.63l67.74-67.74,4-4,4,4,67.54,67.55a20.82,20.82,0,0,0,7,4.62,21.65,21.65,0,0,0,16.14,0,20.91,20.91,0,0,0,11.64-11.63Z"/></svg>