<svg id="Layer_1" data-name="Layer 1" xmlns="http://www.w3.org/2000/svg" viewBox="0 0 512 512"><path d="M414.57-1.72H352.79a10.54,10.54,0,0,0-1.22.08H325.23a97.22,97.22,0,0,0-97.11,97.11v22.09a9.94,9.94,0,0,0,9.92,9.93h38.9a9.94,9.94,0,0,0,9.92-9.93V95.47A38.41,38.41,0,0,1,325.23,57.1H387a8.47,8.47,0,0,0,1.21-.08h26.35a38.41,38.41,0,0,1,38.37,38.37v61.78a9.93,9.93,0,0,0,.2,2V353.41a9.93,9.93,0,0,0-.2,1.95v61.78a38.41,38.41,0,0,1-38.37,38.37H352.79a10,10,0,0,0-2,.21H325.23a38.41,38.41,0,0,1-38.37-38.37V395.26a9.93,9.93,0,0,0-9.92-9.92H238a9.93,9.93,0,0,0-9.92,9.92v22.09a97.22,97.22,0,0,0,97.11,97.11H387a9.9,9.9,0,0,0,2-.21h25.54a97.22,97.22,0,0,0,97.11-97.11V95.39A97.22,97.22,0,0,0,414.57-1.72Z"/><path d="M100.5,282.87a5.53,5.53,0,0,1,3.91-9.44H246v-.31H373.64a5.52,5.52,0,0,0,5.53-5.53V224.07a5.52,5.52,0,0,0-5.53-5.52h-282v.34h-.6l64.09-64.09a5.53,5.53,0,0,0,0-7.82l-30.78-30.77a5.53,5.53,0,0,0-7.82,0L5.87,226.89a27.29,27.29,0,0,0,0,38.57L116.55,376.11a5.53,5.53,0,0,0,7.82,0l30.78-30.77a5.53,5.53,0,0,0,0-7.82Z"/></svg>