<svg id="Layer_1" data-name="Layer 1" xmlns="http://www.w3.org/2000/svg" viewBox="0 0 510.24 510.24"><path  d="M413.06,0H352a10.07,10.07,0,0,0-1.2.08h-26a96.1,96.1,0,0,0-96,96v21.84a9.82,9.82,0,0,0,9.81,9.81H277a9.82,9.82,0,0,0,9.81-9.81V96.07a38,38,0,0,1,37.93-37.93h61.07a8.34,8.34,0,0,0,1.2-.08h26A38,38,0,0,1,451,96v61.07a9.1,9.1,0,0,0,.2,1.93V351A9,9,0,0,0,451,353V414A38,38,0,0,1,413.06,452H352a9.61,9.61,0,0,0-2,.21H324.75a38,38,0,0,1-37.93-37.92V392.41A9.82,9.82,0,0,0,277,382.6H238.57a9.82,9.82,0,0,0-9.81,9.81v21.84a96.1,96.1,0,0,0,96,96h61.07a9.61,9.61,0,0,0,2-.21h25.25a96.1,96.1,0,0,0,96-96V96A96.1,96.1,0,0,0,413.06,0Z"/><path  d="M102.61,281.31a5.46,5.46,0,0,1,3.86-9.32H246.39v-.32H372.61a5.46,5.46,0,0,0,5.46-5.46v-43a5.47,5.47,0,0,0-5.46-5.46H93.86v.34h-.58l63.35-63.35a5.47,5.47,0,0,0,0-7.73L126.2,116.57a5.46,5.46,0,0,0-7.73,0L9.07,226a27,27,0,0,0,0,38.13L118.47,373.48a5.46,5.46,0,0,0,7.73,0l30.43-30.42a5.47,5.47,0,0,0,0-7.73Z"/></svg>