<svg id="Layer_1" data-name="Layer 1" xmlns="http://www.w3.org/2000/svg" viewBox="0 0 584 537"><defs><style>.cls-1{fill-rule:evenodd;}</style></defs><g id="Return_Home" data-name="Return Home"><path id="Path_153" data-name="Path 153" class="cls-1" d="M303.28,49a22.21,22.21,0,0,0-24.81,0l-189,127.11V469.21a22.47,22.47,0,0,0,22.38,22.56H179V329.33C179,292,209,261.66,246.1,261.66h89.55c37.07,0,67.12,30.3,67.12,67.67V491.77H469.9a22.46,22.46,0,0,0,22.39-22.54V176ZM358,491.77V329.33a22.47,22.47,0,0,0-22.29-22.64H246.12a22.47,22.47,0,0,0-22.37,22.56h0V491.69Zm-323.26-279,10-6.7V469.21c0,37.37,30.06,67.67,67.13,67.67H469.92c37.07,0,67.13-30.3,67.13-67.67h0V206.06l10,6.7a22.27,22.27,0,0,0,31-6.26,22.67,22.67,0,0,0-6.2-31.29h0L328.18,11.42a66.69,66.69,0,0,0-74.47,0L10,175.21a22.67,22.67,0,0,0-6.22,31.28,22.29,22.29,0,0,0,31,6.27h0Z"/></g></svg>