<svg id="Layer_1" data-name="Layer 1" xmlns="http://www.w3.org/2000/svg" viewBox="0 0 510.24 510.24"><g id="Icons_File_-_Annotate_Artboard_1_copy_45" data-name="Icons File - Annotate Artboard 1 copy 45"><path id="Path_284" data-name="Path 284" d="M337,281.55l-80.27,80.27a5.61,5.61,0,0,0,0,7.95l.12.12L286.43,399a5.76,5.76,0,0,0,7.95,0h0L419.13,273.68h0a26.46,26.46,0,0,0-.06-37.15L293.84,111.3a5.63,5.63,0,0,0-7.95,0l-.12.12L256.71,141a5.76,5.76,0,0,0,.1,8.05l80.24,79.65H89.22a5.61,5.61,0,0,0-4,1.67h0a5.61,5.61,0,0,0-1.65,4.07l.38,41.37a5.61,5.61,0,0,0,5.54,5.7H337Z"/></g></svg>