<svg id="Layer_1" data-name="Layer 1" xmlns="http://www.w3.org/2000/svg" viewBox="0 0 538.47 510.24"><path d="M456.56-.88H179A82,82,0,0,0,98,69.33h41.83A41,41,0,0,1,179,40.08H456.56a41,41,0,0,1,41,41V358.56a41,41,0,0,1-41,41H441.77v29.25a82.24,82.24,0,0,1-.85,11.71h15.64a82,82,0,0,0,81.91-81.92V81A82,82,0,0,0,456.56-.88Z"/><path d="M441.38,151.67a82,82,0,0,0-81.92-81.91H81.92A82,82,0,0,0,0,151.67V429.2a82,82,0,0,0,81.92,81.92H359.46a82,82,0,0,0,81.92-81.92Zm-41,277.53a41,41,0,0,1-41,41H81.92a41,41,0,0,1-41-41V151.67a41,41,0,0,1,41-40.95H359.46a41,41,0,0,1,41,40.95Z"/><path d="M315.16,198.67A19.31,19.31,0,0,0,288.35,203L189.79,334.1l-35-36.13a19.11,19.11,0,0,0-27.46,26.57l51.14,52a19.41,19.41,0,0,0,13.4,5.56l1.88,0a19.94,19.94,0,0,0,13.82-7.8l112-148.77a19.23,19.23,0,0,0-4.38-26.86Z"/></svg>