<svg id="Layer_1" data-name="Layer 1" xmlns="http://www.w3.org/2000/svg" viewBox="0 0 496 362"><defs><style>.cls-1{fill-rule:evenodd;}</style></defs><g id="Show_Hide_Password_icon_" data-name="Show Hide Password icon "><path id="Path_152" data-name="Path 152" class="cls-1" d="M375,92.13a517.79,517.79,0,0,1,83.11,89.75A517.43,517.43,0,0,1,375,271.63a208.32,208.32,0,0,1-127.39,55.81,208.27,208.27,0,0,1-127.38-55.81,517,517,0,0,1-83.11-89.75,517.4,517.4,0,0,1,83.11-89.75A208.27,208.27,0,0,1,247.64,36.32,208.32,208.32,0,0,1,375,92.13Zm114.49,71a31.66,31.66,0,0,1,0,37.46C456,247,360.35,363.8,247.64,363.8S39.34,247,5.77,200.6a31.66,31.66,0,0,1,0-37.46C39.34,116.7,134.94-.06,247.64-.06S456,116.7,489.52,163.14ZM302.23,181.86a54.59,54.59,0,1,1-54.61-54.56h0a54.58,54.58,0,0,1,54.59,54.58h0Zm36.39,0a91,91,0,1,1-91-91h0a91,91,0,0,1,91,91Z"/></g></svg>