<svg id="Layer_1" data-name="Layer 1" xmlns="http://www.w3.org/2000/svg" viewBox="0 0 510.24 510.24"><path d="M400.92,56.86H495.4a6.09,6.09,0,0,0,3.94-1.36A5.81,5.81,0,0,0,501.41,51l-.32-34.65a5.81,5.81,0,0,0-5.8-5.74L333.57,11h0a23.08,23.08,0,0,0-22.9,22.95l0,162a5.75,5.75,0,0,0,1.7,4.09l0,0a5.82,5.82,0,0,0,4.13,1.68l34.65-.34a5.8,5.8,0,0,0,5.73-5.81l-.35-106A194.93,194.93,0,0,1,392,117.58a192.75,192.75,0,0,1,56.83,137.7c-.27,106.59-87.51,193.56-194.1,193.52-106.95,0-193.95-87.07-193.95-194,0-101,77.57-184.2,176.26-193.2A6.48,6.48,0,0,0,243,55.12V16A6.49,6.49,0,0,0,236,9.5,246,246,0,0,0,80.87,428.71,246,246,0,1,0,428.74,80.84,249.71,249.71,0,0,0,400.92,56.86Z"/></svg>