<svg id="Layer_1" data-name="Layer 1" xmlns="http://www.w3.org/2000/svg" viewBox="0 0 510.24 510.24"><defs><style>.cls-1{fill:#1d1d1b;}</style></defs><path class="cls-1" d="M510.24,75.39A75.39,75.39,0,1,0,392.79,138L340.15,292.18c-.65,0-1.29-.05-1.94-.05a75.18,75.18,0,0,0-27.82,5.32l-62.93-77.64A75.39,75.39,0,1,0,135.39,235.1L81.29,359.68c-1.81-.13-3.63-.22-5.47-.22a75.42,75.42,0,1,0,47.35,16.75L176.66,253a75.31,75.31,0,0,0,35.84-4.89l62.93,77.64A75.38,75.38,0,1,0,382.74,306.7l53.23-156A75.37,75.37,0,0,0,510.24,75.39ZM75.82,472.24a37.39,37.39,0,1,1,37.38-37.39A37.43,37.43,0,0,1,75.82,472.24ZM184.68,140.7a37.39,37.39,0,1,1-37.38,37.38A37.43,37.43,0,0,1,184.68,140.7ZM338.21,404.9a37.39,37.39,0,1,1,37.38-37.38A37.43,37.43,0,0,1,338.21,404.9ZM434.85,38a37.39,37.39,0,1,1-37.39,37.39A37.43,37.43,0,0,1,434.85,38Z"/></svg>