<svg id="Layer_1" xmlns="http://www.w3.org/2000/svg" viewBox="0 0 510.24 510.24"><path d="M495.28,103.3L417.32,25.33c-19.98-19.98-52.48-19.98-72.46,0L84,286.19c-9.68,9.68-15.01,22.54-15.01,36.23,0,2.88,.25,5.73,.71,8.52L7.92,414.22c-7.63,10.28-9.94,23.73-6.19,35.97s13.2,22.08,25.28,26.32l59.97,21.06h0c4.52,1.59,9.18,2.37,13.81,2.37,7.85,0,15.61-2.25,22.43-6.66l65.81-42.49c3,.54,6.06,.83,9.17,.83h0c13.69,0,26.55-5.33,36.23-15.01L495.28,175.76c19.98-19.98,19.98-52.48,0-72.46ZM100.13,453.43l-50.79-17.84,46.02-62.02,50.4,50.4-45.63,29.46ZM462.75,143.23L201.9,404.09c-1.27,1.27-2.71,1.53-3.7,1.53s-2.44-.27-3.7-1.53l-77.96-77.96c-1.27-1.27-1.53-2.71-1.53-3.7s.27-2.44,1.53-3.7L377.38,57.86c1.02-1.02,2.36-1.53,3.7-1.53s2.68,.51,3.7,1.53l77.96,77.96c1.27,1.27,1.53,2.71,1.53,3.7s-.27,2.44-1.53,3.7Z"/></svg>
