<svg id="Layer_1" data-name="Layer 1" xmlns="http://www.w3.org/2000/svg" viewBox="0 0 538.47 510.24"><path d="M459.67,0H78.76A64.71,64.71,0,0,0,14.12,64.78V445.55c0,.56,0,1.1,0,1.66s0,1.09.05,1.63.08,1.08.12,1.62.07,1.12.13,1.67.13,1.05.2,1.58.13,1.11.21,1.66.19,1,.28,1.55.18,1.09.29,1.63.24,1,.36,1.53.23,1.08.37,1.61.28,1,.42,1.49.29,1.06.45,1.58.33,1,.5,1.46.34,1,.52,1.55.38,1,.57,1.44l.59,1.5c.21.48.43,1,.65,1.43s.42,1,.65,1.43.47.92.71,1.38.47.95.72,1.41.53.92.79,1.37.51.9.77,1.34.58.91.87,1.36.54.85.82,1.27.61.87.92,1.3.58.83.88,1.24.67.85,1,1.27.61.79.93,1.17.72.83,1.08,1.25.63.74.95,1.1.74.78,1.11,1.17.69.73,1,1.08.76.72,1.14,1.08.73.72,1.11,1.06.78.68,1.17,1,.78.69,1.18,1,.78.61,1.17.92.84.68,1.28,1,.8.57,1.2.86.88.64,1.33.94.85.54,1.27.81.9.6,1.36.88.84.48,1.26.72,1,.57,1.45.84.83.42,1.24.63,1,.54,1.56.8l1.25.56c.54.25,1.07.5,1.61.73s.85.33,1.28.5,1.1.45,1.67.66l1.34.46,1.66.56c.46.14.93.26,1.4.39s1.11.33,1.68.48.93.21,1.4.32,1.15.28,1.73.4,1.09.2,1.63.29,1,.2,1.56.28,1.12.14,1.69.22,1,.14,1.55.19,1.34.11,2,.16l1.27.09c1.11.06,2.22.09,3.34.09H459.72a64.72,64.72,0,0,0,64.64-64.78V64.59A64.69,64.69,0,0,0,459.67,0Zm11.88,68.77v63.69h-275V53.81H456.59A15,15,0,0,1,471.55,68.77Zm-388.67-15h63.65v78.65H67.93V68.77A15,15,0,0,1,82.88,53.81ZM67.93,442.47v-260h78.6v275H82.88A15,15,0,0,1,67.93,442.47Zm388.66,15H196.53v-275h275v260A15,15,0,0,1,456.59,457.43Z"/></svg>