<svg id="Layer_1" data-name="Layer 1" xmlns="http://www.w3.org/2000/svg" viewBox="0 0 510.24 510.24"><defs><style>.cls-1{fill:#1d1d1b;}</style></defs><path class="cls-1" d="M488.69,73.34h0c-.1-.51-.21-1-.34-1.51A24.44,24.44,0,0,0,458.64,54.4,195.85,195.85,0,0,1,409,60.5h-1a197.94,197.94,0,0,1-136-53.68,24.41,24.41,0,0,0-33.82,0A198.14,198.14,0,0,1,102.17,60.51h-1a193.65,193.65,0,0,1-49.58-6.1c-.49-.13-1-.24-1.5-.34A24.45,24.45,0,0,0,21.54,73.38a367.51,367.51,0,0,0-6.27,68.85,417.34,417.34,0,0,0,63.49,214A420.28,420.28,0,0,0,243.64,507.38a24.47,24.47,0,0,0,22.94,0A420.34,420.34,0,0,0,431.47,356.22,417.45,417.45,0,0,0,495,142.12,367.62,367.62,0,0,0,488.69,73.34ZM255.12,458.27C139.67,394.5,66.47,273.36,64.05,142a333.09,333.09,0,0,1,1.86-35.42A255.24,255.24,0,0,0,101,109h.83A250.87,250.87,0,0,0,255.12,56.46,250.8,250.8,0,0,0,408.43,109h.84a255.64,255.64,0,0,0,35.06-2.43A332.89,332.89,0,0,1,446.18,142C443.75,273.36,370.56,394.5,255.12,458.27Z"/><path class="cls-1" d="M354.69,187.82l-21-18.71a8.41,8.41,0,0,0-11.85.65L228.85,273,193,227.23a8.43,8.43,0,0,0-11.78-1.47L159,243a8.32,8.32,0,0,0-1.47,11.72l56.14,71.81a17.44,17.44,0,0,0,26.65.92l115-127.82A8.33,8.33,0,0,0,354.69,187.82Z"/></svg>