<svg id="Layer_1" data-name="Layer 1" xmlns="http://www.w3.org/2000/svg" viewBox="0 0 510.24 510.24"><g id="Icons_File_-_Annotate_Artboard_1_copy_45" data-name="Icons File - Annotate Artboard 1 copy 45"><path id="Path_284" data-name="Path 284" d="M281.55,173.28l80.27,80.27a5.63,5.63,0,0,0,7.95,0l.12-.12L399,223.81a5.76,5.76,0,0,0,0-7.95h0L273.68,91.11h0a26.45,26.45,0,0,0-37.15.06L111.3,216.4a5.63,5.63,0,0,0,0,7.95l.12.12L141,253.53a5.77,5.77,0,0,0,8.05-.1l79.65-80.25V421a5.63,5.63,0,0,0,1.67,4.06h0a5.65,5.65,0,0,0,4.07,1.65l41.37-.38a5.62,5.62,0,0,0,5.7-5.54V173.28Z"/></g></svg>