<svg id="Layer_1" data-name="Layer 1" xmlns="http://www.w3.org/2000/svg" viewBox="0 0 510.24 510.24"><path  d="M501.37,300.54H462.76a9,9,0,0,0-8.87,9v82.27c0,21.87-17.52,39.67-39.07,39.67H95.42c-21.55,0-39.08-17.8-39.08-39.67V309.54a8.94,8.94,0,0,0-8.86-9H8.87a9,9,0,0,0-8.87,9v82.27c0,53.41,42.8,96.87,95.42,96.87h319.4c52.61,0,95.42-43.46,95.42-96.87V309.54A9,9,0,0,0,501.37,300.54Z"/><path  d="M159.9,167a6.63,6.63,0,0,0,9.43-.06l62.11-63.54v34.11h0V349.75a6.76,6.76,0,0,0,2,4.82,6.64,6.64,0,0,0,4.77,2l34-.33a6.76,6.76,0,0,0,6.63-6.79V305.47c0-.15,0-.29,0-.45V103.37l62.62,63.57a6.57,6.57,0,0,0,4.73,2h0a6.6,6.6,0,0,0,4.74-2l23.92-24.73a6.89,6.89,0,0,0-.05-9.57l-103-104.12h0a23.47,23.47,0,0,0-33.32,0L135.49,133.07a6.86,6.86,0,0,0,0,9.65Z"/></svg>