<svg id="Layer_1" data-name="Layer 1" xmlns="http://www.w3.org/2000/svg" viewBox="0 0 510.24 510.24"><path d="M474.34,507.49h.12a23.19,23.19,0,0,0,23.19-22.92c-1.35-109.65-91.63-199-201.31-199.18H213.87c-53.22.32-103.24,20.84-140.79,57.77S14,430,12.59,483.66A23,23,0,0,0,19,500.22a23.44,23.44,0,0,0,16.39,7.25H474l.25,0ZM439,460.08H62.25l2.14-8.81c16.73-68.63,77-116.55,146.61-116.55,1,0,2,0,3,0h83.2a154.37,154.37,0,0,1,51,8.59,152.26,152.26,0,0,1,97.7,107.93l2.14,8.81Z"/><path d="M255.14,2.74h0C180,2.86,118.73,64.16,118.58,139.38A136.92,136.92,0,0,0,228,271.29l.12,0a135.21,135.21,0,0,0,54,0h0a135.16,135.16,0,0,0,99.56-86.24,136.75,136.75,0,0,0,8.18-46.92A135.07,135.07,0,0,0,255.14,2.74Zm61.8,196.87a88,88,0,0,1-62.13,26.88h-.14a86.93,86.93,0,0,1-86.73-87.23C167.68,91,206.74,51,255,50.14h.26a88.14,88.14,0,0,1,61.67,149.47Z"/></svg>