<svg id="Layer_1" data-name="Layer 1" xmlns="http://www.w3.org/2000/svg" viewBox="0 0 538.47 510.24"><path d="M455.32,3.84H83.16A65.31,65.31,0,0,0,18,69.13V441.19c0,.39,0,.77,0,1.15l0,.52v.52l0,1.13c0,.38.06.75.09,1.13l0,.51,0,.51c0,.39.05.78.09,1.16s.08.73.13,1.09l.07.51.06.5c.05.39.1.78.16,1.17s.12.72.19,1.08l.09.48.08.5c.07.39.13.77.21,1.15s.16.71.24,1.05l.12.49.11.48c.08.38.17.76.26,1.14s.19.68.29,1l.14.48.13.49c.11.37.21.74.32,1.11s.23.68.34,1l.16.46.16.46c.12.37.24.74.37,1.1s.26.68.4,1l.18.45.18.46c.13.35.27.7.41,1l.45,1,.2.45.2.44c.15.34.3.67.46,1s.32.65.49,1l.22.44.22.43.51,1,.55,1,.25.42.24.42q.25.46.54.93c.19.32.4.64.61,1l.26.4.26.41c.18.29.37.59.56.87s.43.62.65.92l.29.4.28.39c.2.29.4.58.61.85s.46.61.7.9l.3.39.3.37.63.81c.25.3.51.59.77.89l.32.36.31.37c.22.25.43.5.65.74l.78.82.34.36.34.35c.23.25.47.5.71.74l.79.76.35.33.36.35.76.72c.27.24.54.48.82.71l.37.32.37.32.81.7.82.65.37.28.36.29c.3.24.61.49.92.72L45,494l.39.27.39.28c.32.23.63.46,1,.68l.87.56.4.25.41.27c.32.21.64.42,1,.61s.55.33.84.49l.42.24.42.25,1,.59L53,499l.42.21.43.22c.38.2.76.4,1.15.59l.82.37.44.2.43.2,1.2.53.84.34.44.17.44.18,1.24.48.91.31.45.15.47.16,1.2.41.93.26.48.13.49.15,1.2.34.93.21.48.11.5.12c.41.1.83.2,1.25.28l1.13.21.51.09.49.09,1.08.19c.4.06.81.11,1.21.15l.5.06.51.07c.35.05.7.1,1,.13.53.06,1.06.09,1.59.13l.44,0,.45,0c.28,0,.55.05.83.06,1.12.06,2.25.09,3.36.09H455.34a65.31,65.31,0,0,0,65.18-65.3V69h0V69A65.3,65.3,0,0,0,455.32,3.84Zm-215.08,447H87.15a12.63,12.63,0,0,1-12.62-12.62V73A12.63,12.63,0,0,1,87.15,60.41H240.24Zm58-390.39H452.3A12.63,12.63,0,0,1,464.92,73V438.18A12.63,12.63,0,0,1,452.3,450.8H298.24Z"/></svg>