<svg id="Layer_1" data-name="Layer 1" xmlns="http://www.w3.org/2000/svg" viewBox="0 0 538.47 510.24"><path d="M470.52.84H203.66a53.33,53.33,0,0,0-53.32,53.4v81.65H68a53.41,53.41,0,0,0-53.33,53.4V456.07c0,.36,0,.71,0,1.06v.63c0,.35,0,.69,0,1s0,.68.07,1l0,.31,0,.32c0,.36.05.71.08,1.06s.08.66.13,1l0,.31,0,.31c0,.36.08.71.14,1.06s.11.65.17,1l.05.3.06.31c.06.35.12.69.19,1s.14.65.22,1l.07.29.06.3.24,1,.27.95.08.28.08.28c.09.34.19.69.3,1s.2.61.31.92l.09.28.09.28c.11.33.23.67.35,1s.24.64.36.95l.11.26.1.26q.18.48.39,1c.12.31.26.61.4.91l.13.27.12.28c.13.3.27.6.41.9l.44.87.14.27.14.27c.15.3.31.6.47.9s.32.57.49.86l.15.26.15.26c.16.29.32.57.49.85s.37.59.56.87l.16.25.14.23c.17.27.35.54.53.81s.38.56.58.82l.18.25.17.25c.18.26.36.52.55.77s.42.55.64.81l.19.24.18.23.58.74c.22.27.46.53.69.8l.2.23.19.22c.2.23.39.46.6.68s.46.5.7.74l.21.22.2.21c.22.23.43.46.65.68s.48.47.72.69l.22.21.22.21.69.65.75.66.22.19.21.18.77.66c.23.19.48.39.74.58L35,498l.22.17.83.65.76.54.23.17.24.17c.29.2.57.41.86.6s.52.35.79.51l.25.16.25.16.87.56.78.45.25.14.28.17.93.53.77.39.24.13.28.14c.34.18.67.35,1,.51l.79.36.25.11.27.13,1.06.47.8.32.25.1.28.11,1.09.43.84.28.27.09.32.11c.35.13.7.25,1.06.36l.86.25.28.07.31.1,1.08.3.89.21.27.06.31.07c.37.09.74.18,1.12.25l1,.19.32.06.31.05,1,.17c.35.06.71.1,1.07.14l.32,0,.31,0,1,.12c.45.05.9.08,1.35.11l.31,0,.24,0,.81.06c.9,0,1.82.07,2.74.07H334.83A53.35,53.35,0,0,0,388.14,456V374.34h82.39A53.33,53.33,0,0,0,523.84,321V54.15h0v0A53.4,53.4,0,0,0,470.52.84ZM204,318.86V189.59H332.66a2.49,2.49,0,0,1,2.48,2.48V321.34H206.52A2.48,2.48,0,0,1,204,318.86Zm-53.68,3.22v.63c0,.35,0,.69,0,1s0,.69.07,1l0,.3,0,.31c0,.35.05.71.09,1.05s.07.67.12,1l0,.3,0,.32c0,.36.08.71.14,1.06s.11.65.17,1l.05.3.06.31c.06.35.12.7.19,1s.14.64.22,1l.07.29.06.29c.08.34.16.69.25,1s.17.62.26.93l.08.29.09.31c.09.33.18.67.29,1s.2.61.31.93l.09.27.1.28c.11.33.22.66.34,1s.23.62.36.92l.11.28.11.29c.12.32.25.63.38.94s.26.6.4.9l.13.28.12.28c.14.3.27.6.42.9s.29.58.44.87l.13.27.15.28.46.89c.16.29.33.59.51.89l.14.24.14.25c.16.28.32.57.49.85l.55.86.16.25.16.25.52.8c.19.28.38.55.58.82l.18.25.17.25c.18.26.37.52.56.77s.42.54.63.81l.19.24.19.24c.18.24.37.49.57.72s.46.54.69.8l.2.23.18.22.61.69.7.74.21.22.2.21.65.67.73.71.22.2.2.2.71.67.73.64.23.19.24.21.73.63.73.58.23.18.25.19.81.64.74.53.25.17.24.18c.29.2.57.41.86.6s.53.34.79.51l.25.16.26.17.87.55.79.46.24.14.26.15c.31.18.62.36.94.53s.52.28.79.41l.23.12.27.14c.34.17.67.35,1,.51s.53.25.8.36l.24.11.27.13,1.06.47.8.32.24.09.3.13,1.09.42.85.29.26.09.29.1,1.07.35c.3.1.6.18.89.26l.27.08.3.08,1.09.31.88.2.27.06.32.08,1.11.25,1,.19.32.05.3.06,1,.17c.37.06.72.1,1.08.14l.32,0,.28,0,1,.12,1.34.11.31,0,.24,0,.81.06c.91,0,1.83.06,2.74.06H335.14v79.57a2.49,2.49,0,0,1-2.48,2.48H70.82a2.49,2.49,0,0,1-2.49-2.48V192.07a2.49,2.49,0,0,1,2.49-2.48h79.52V321C150.34,321.38,150.35,321.73,150.36,322.08ZM334.82,135.89H204V57a2.48,2.48,0,0,1,2.48-2.48H468.36A2.48,2.48,0,0,1,470.84,57V318.86a2.48,2.48,0,0,1-2.48,2.48H388.14V189.2h0v-.05A53.4,53.4,0,0,0,334.82,135.89Z"/></svg>