<svg id="Layer_1" data-name="Layer 1" xmlns="http://www.w3.org/2000/svg" viewBox="0 0 590 542"><path d="M579.41,419.26,368.23,43l0,0a84.27,84.27,0,0,0-146.52,0L10.6,419.24a81.25,81.25,0,0,0,.63,81.34,83.36,83.36,0,0,0,71.85,41.33H506.76a83.43,83.43,0,0,0,71.9-41.31A81.22,81.22,0,0,0,579.41,419.26ZM59.92,447l211-376a28.82,28.82,0,0,1,48-.24L530.09,447a24.75,24.75,0,0,1-.26,25.05,27.12,27.12,0,0,1-23.31,13.23H83.38A27.11,27.11,0,0,1,60.1,472,24.57,24.57,0,0,1,59.92,447Z"/><path d="M276.21,339.43a28.16,28.16,0,0,0,18.67,7c.63,0,1.26,0,1.88-.06a28.46,28.46,0,0,0,26.48-26.72V174.22A28.44,28.44,0,0,0,295,145.86h0a28.38,28.38,0,0,0-28.34,28.36l0,145.73A28.15,28.15,0,0,0,276.21,339.43Z"/><path d="M297.63,440.64c19.3,0,34.43-10.68,34.43-24.31S316.93,392,297.63,392s-34.43,10.68-34.43,24.3S278.33,440.64,297.63,440.64Z"/></svg>