<?xml version="1.0" encoding="UTF-8"?><svg id="Layer_1" xmlns="http://www.w3.org/2000/svg" viewBox="0 0 510.24 510.24"><path d="M510.19,446.12v-86.96h-.02l-15.94-175.88c-1.83-20.86-11.29-40.31-26.57-54.63,.04-.46,.04-.91,0-1.37V63.51c0-23.47-19.03-42.5-42.5-42.5h-63.76c-23.47,0-42.5,19.03-42.5,42.5v63.76c-.04,.46-.04,.91,0,1.37-6.02,5.84-11.15,12.54-15.22,19.87h-97.14c-4.07-7.33-9.2-14.03-15.22-19.87,.04-.46,.04-.91,0-1.37V63.51c0-23.47-19.03-42.5-42.5-42.5h-63.76c-23.47,0-42.5,19.03-42.5,42.5v63.76c-.04,.46-.04,.91,0,1.37-15.36,14.28-24.9,33.74-26.78,54.63L.05,359.16v86.96c-.54,11.21,3.53,22.15,11.26,30.28,13.46,10.16,30.39,14.55,47.09,12.22h122.33c15.04,1.76,30.14-2.64,41.87-12.22,7.73-8.14,11.79-19.08,11.26-30.28v-86.96l-1.8-19.35h46.13l-1.8,19.35v86.96c-.53,11.21,3.53,22.15,11.26,30.28,13.46,10.16,30.39,14.55,47.09,12.22h122.31c15.04,1.76,30.14-2.64,41.87-12.22,7.73-8.13,11.8-19.08,11.26-30.28ZM85.49,63.48h63.35v44c-5.19-.98-10.46-1.47-15.74-1.48h-31.89c-5.27,0-10.54,.5-15.72,1.48V63.48Zm-27,123.73c1.98-21.89,20.32-38.66,42.31-38.68v-.02h31.89c22.03-.09,40.47,16.66,42.5,38.59l14.13,152.73H44.57l13.91-152.62Zm117.33,258.91H58.07c-5.17,.27-10.35,.27-15.52,0v-63.77H191.34v63.77c-5.17,.27-10.35,.27-15.52,0Zm106.33-148.79h-54.05l-9.67-106.27h73.4l-9.67,106.27ZM361.77,63.48h63.37v44c-5.19-.98-10.46-1.47-15.74-1.48h-31.89c-5.28,0-10.55,.5-15.74,1.48V63.48Zm-26.96,123.7c1.99-21.97,20.45-38.77,42.5-38.68h31.91c22.03-.09,40.49,16.65,42.52,38.59l13.91,152.73h-144.75l13.89-152.64Zm117.33,258.93h-117.75c-5.17,.27-10.35,.27-15.52,0v-63.77h148.79v63.77c-5.17,.27-10.35,.27-15.52,0Z"/></svg>