<svg id="Layer_1" data-name="Layer 1" xmlns="http://www.w3.org/2000/svg" viewBox="0 0 510.24 510.24"><defs><style>.cls-1{fill:#1d1d1b;}</style></defs><path class="cls-1" d="M445.48-.5H64.57A64.71,64.71,0,0,0-.07,64.28V445.05c0,.57,0,1.12,0,1.68s0,1.08.05,1.61.08,1.1.12,1.65.07,1.09.13,1.64.14,1.07.2,1.6.13,1.1.21,1.64.19,1.05.29,1.58.18,1.07.28,1.61.24,1,.36,1.55.23,1.06.37,1.58.29,1,.44,1.54.28,1,.43,1.53.35,1,.52,1.53.32,1,.5,1.48.41,1,.61,1.54.36.94.55,1.39.46,1,.69,1.53.4.9.61,1.34.52,1,.77,1.51.43.86.66,1.28.57,1,.86,1.49.46.82.7,1.22.62,1,.93,1.45.5.79.76,1.18.66.93,1,1.4.53.76.81,1.14.72.91,1.08,1.37.56.72.85,1.07.77.9,1.16,1.34.57.68.87,1,.81.85,1.22,1.28.61.65.93,1,.84.81,1.27,1.21.64.63,1,.93.87.76,1.31,1.14.68.61,1,.9.86.68,1.29,1,.76.62,1.16.91.87.62,1.3.93l1.23.87c.45.31.92.59,1.37.88l1.26.81c.45.27.91.52,1.36.78l1.35.78,1.35.69c.48.24,1,.5,1.45.74L38,504c.5.23,1,.47,1.5.68s.93.37,1.39.55,1,.42,1.56.61,1,.33,1.47.5,1,.36,1.53.52,1,.28,1.48.42,1.06.31,1.6.45L50,508c.56.13,1.11.27,1.67.38s1.13.21,1.7.31,1,.19,1.49.26,1.14.15,1.72.22,1,.14,1.52.19c.68.07,1.37.11,2.06.16.41,0,.81.07,1.22.09,1.11.06,2.22.09,3.34.09H445.53A64.72,64.72,0,0,0,510.17,445V64.09A64.69,64.69,0,0,0,445.48-.5Zm11.88,68.77V442a15,15,0,0,1-15,15H68.7a15,15,0,0,1-15-15V68.27a15,15,0,0,1,15-15H442.4A15,15,0,0,1,457.36,68.27Z"/><path class="cls-1" d="M352.82,237.18a22.64,22.64,0,0,0-7.12-4.82,21.83,21.83,0,0,0-8.62-1.76H276.7V170.22a21.83,21.83,0,0,0-1.76-8.62A22.82,22.82,0,0,0,263,149.66a22,22,0,0,0-17.25,0,22.27,22.27,0,0,0-7.11,4.82,22.51,22.51,0,0,0-4.83,7.12,21.83,21.83,0,0,0-1.76,8.62V230.6H171.67a21.83,21.83,0,0,0-8.62,1.76,22.73,22.73,0,0,0-11.94,11.94,21.87,21.87,0,0,0,0,17.24,22.73,22.73,0,0,0,11.94,11.94,21.66,21.66,0,0,0,8.62,1.77h60.38v60.38a21.83,21.83,0,0,0,1.76,8.62,22.82,22.82,0,0,0,11.94,11.94,21.9,21.9,0,0,0,17.25,0,22.82,22.82,0,0,0,11.94-11.94,21.83,21.83,0,0,0,1.76-8.62V275.25h60.38a21.66,21.66,0,0,0,8.62-1.77,22.73,22.73,0,0,0,11.94-11.94,21.87,21.87,0,0,0,0-17.24A22.42,22.42,0,0,0,352.82,237.18Z"/></svg>