<svg id="Layer_1" data-name="Layer 1" xmlns="http://www.w3.org/2000/svg" viewBox="0 0 510.24 510.24"><defs><style>.cls-1{fill:#1d1d1b;}</style></defs><path class="cls-1" d="M445.55-.5H64.64A64.71,64.71,0,0,0,0,64.28V445.05c0,.56,0,1.11,0,1.66s0,1.09,0,1.63.08,1.08.12,1.62.07,1.12.13,1.67.13,1.05.2,1.58.13,1.11.21,1.66.19,1,.28,1.55.18,1.1.3,1.64.23,1,.35,1.52.23,1.08.37,1.61.28,1,.42,1.49.29,1.06.45,1.58.33,1,.5,1.46.34,1,.52,1.55.38,1,.58,1.45.38,1,.58,1.49.44,1,.65,1.43.43,1,.65,1.43.47.93.71,1.39.47.94.72,1.41.53.91.79,1.36.51.91.77,1.34.58.91.87,1.36.54.85.82,1.27.62.87.92,1.3.58.83.89,1.24.66.85,1,1.27.6.79.92,1.17.72.84,1.08,1.25.63.74.95,1.1.74.78,1.12,1.17.68.73,1,1.08.76.72,1.14,1.08.73.72,1.11,1.06.78.68,1.18,1,.77.69,1.17,1,.78.61,1.17.92.84.68,1.28,1,.8.57,1.2.86.88.64,1.34.94.84.54,1.26.81.9.6,1.36.88l1.26.72c.48.28,1,.57,1.46.84s.82.42,1.23.63,1,.54,1.56.8l1.25.56c.54.25,1.07.5,1.62.73s.84.34,1.27.5,1.1.46,1.67.66l1.34.46,1.66.56c.46.14.93.26,1.4.39s1.11.33,1.68.48.93.21,1.4.32,1.15.28,1.73.4,1.09.2,1.63.29,1,.2,1.56.28,1.13.15,1.69.22,1,.14,1.55.19,1.34.11,2,.16l1.27.09c1.11.06,2.22.09,3.34.09H445.6A64.71,64.71,0,0,0,510.24,445V64.09A64.69,64.69,0,0,0,445.55-.5Zm11.88,68.77V442a15,15,0,0,1-15,15H68.77a15,15,0,0,1-15-15V68.27a15,15,0,0,1,15-15h373.7A15,15,0,0,1,457.43,68.27Z"/><path class="cls-1" d="M357.64,244.3a22.73,22.73,0,0,0-11.94-11.94,21.83,21.83,0,0,0-8.62-1.76H171.67a21.83,21.83,0,0,0-8.62,1.76,22.73,22.73,0,0,0-11.94,11.94,21.87,21.87,0,0,0,0,17.24,22.73,22.73,0,0,0,11.94,11.94,21.66,21.66,0,0,0,8.62,1.77H337.08a21.66,21.66,0,0,0,8.62-1.77,22.73,22.73,0,0,0,11.94-11.94,21.87,21.87,0,0,0,0-17.24Z"/></svg>